<?xml version="1.0" encoding="UTF-8"?>
<!--Generator: Apple Native CoreSVG 175.5-->
<!DOCTYPE svg
PUBLIC "-//W3C//DTD SVG 1.1//EN"
       "http://www.w3.org/Graphics/SVG/1.1/DTD/svg11.dtd">
<svg version="1.1" xmlns="http://www.w3.org/2000/svg" xmlns:xlink="http://www.w3.org/1999/xlink" width="3300" height="2200">
 <!--glyph: "uni100191.medium", point size: 100.0, font version: "18.0d12e2", template writer version: "101"-->
 <g id="Notes">
  <rect height="2200" id="artboard" style="fill:white;opacity:1" width="3300" x="0" y="0"/>
  <line style="fill:none;stroke:black;opacity:1;stroke-width:0.5;" x1="263" x2="3036" y1="292" y2="292"/>
  <text style="stroke:none;fill:black;font-family:sans-serif;font-size:13;font-weight:bold;" transform="matrix(1 0 0 1 263 322)">Weight/Scale Variations</text>
  <text style="stroke:none;fill:black;font-family:sans-serif;font-size:13;text-anchor:middle;" transform="matrix(1 0 0 1 559.711 322)">Ultralight</text>
  <text style="stroke:none;fill:black;font-family:sans-serif;font-size:13;text-anchor:middle;" transform="matrix(1 0 0 1 856.422 322)">Thin</text>
  <text style="stroke:none;fill:black;font-family:sans-serif;font-size:13;text-anchor:middle;" transform="matrix(1 0 0 1 1153.13 322)">Light</text>
  <text style="stroke:none;fill:black;font-family:sans-serif;font-size:13;text-anchor:middle;" transform="matrix(1 0 0 1 1449.84 322)">Regular</text>
  <text style="stroke:none;fill:black;font-family:sans-serif;font-size:13;text-anchor:middle;" transform="matrix(1 0 0 1 1746.56 322)">Medium</text>
  <text style="stroke:none;fill:black;font-family:sans-serif;font-size:13;text-anchor:middle;" transform="matrix(1 0 0 1 2043.27 322)">Semibold</text>
  <text style="stroke:none;fill:black;font-family:sans-serif;font-size:13;text-anchor:middle;" transform="matrix(1 0 0 1 2339.98 322)">Bold</text>
  <text style="stroke:none;fill:black;font-family:sans-serif;font-size:13;text-anchor:middle;" transform="matrix(1 0 0 1 2636.69 322)">Heavy</text>
  <text style="stroke:none;fill:black;font-family:sans-serif;font-size:13;text-anchor:middle;" transform="matrix(1 0 0 1 2933.4 322)">Black</text>
  <line style="fill:none;stroke:black;opacity:1;stroke-width:0.5;" x1="263" x2="3036" y1="1903" y2="1903"/>
  <g transform="matrix(1 0 0 1 263 1933)">
   <path d="M9.24805 0.830078C13.5547 0.830078 17.1387-2.74414 17.1387-7.05078C17.1387-11.3574 13.5449-14.9316 9.23828-14.9316C4.94141-14.9316 1.36719-11.3574 1.36719-7.05078C1.36719-2.74414 4.95117 0.830078 9.24805 0.830078ZM9.24805-0.654297C5.70312-0.654297 2.87109-3.49609 2.87109-7.05078C2.87109-10.6055 5.69336-13.4473 9.23828-13.4473C12.793-13.4473 15.6445-10.6055 15.6445-7.05078C15.6445-3.49609 12.8027-0.654297 9.24805-0.654297ZM5.6543-7.05078C5.6543-6.62109 5.95703-6.32812 6.40625-6.32812L8.50586-6.32812L8.50586-4.20898C8.50586-3.76953 8.79883-3.4668 9.22852-3.4668C9.67773-3.4668 9.9707-3.76953 9.9707-4.20898L9.9707-6.32812L12.0898-6.32812C12.5293-6.32812 12.832-6.62109 12.832-7.05078C12.832-7.49023 12.5293-7.79297 12.0898-7.79297L9.9707-7.79297L9.9707-9.90234C9.9707-10.3516 9.67773-10.6543 9.22852-10.6543C8.79883-10.6543 8.50586-10.3516 8.50586-9.90234L8.50586-7.79297L6.40625-7.79297C5.95703-7.79297 5.6543-7.49023 5.6543-7.05078Z"/>
  </g>
  <g transform="matrix(1 0 0 1 281.867 1933)">
   <path d="M11.709 2.91016C17.1582 2.91016 21.6699-1.61133 21.6699-7.05078C21.6699-12.5 17.1484-17.0117 11.6992-17.0117C6.25977-17.0117 1.74805-12.5 1.74805-7.05078C1.74805-1.61133 6.26953 2.91016 11.709 2.91016ZM11.709 1.25C7.09961 1.25 3.41797-2.44141 3.41797-7.05078C3.41797-11.6602 7.08984-15.3516 11.6992-15.3516C16.3086-15.3516 20.0098-11.6602 20.0098-7.05078C20.0098-2.44141 16.3184 1.25 11.709 1.25ZM7.17773-7.05078C7.17773-6.57227 7.50977-6.25 8.00781-6.25L10.8789-6.25L10.8789-3.36914C10.8789-2.88086 11.2109-2.53906 11.6895-2.53906C12.1777-2.53906 12.5195-2.87109 12.5195-3.36914L12.5195-6.25L15.4004-6.25C15.8887-6.25 16.2305-6.57227 16.2305-7.05078C16.2305-7.53906 15.8887-7.88086 15.4004-7.88086L12.5195-7.88086L12.5195-10.752C12.5195-11.25 12.1777-11.5918 11.6895-11.5918C11.2109-11.5918 10.8789-11.25 10.8789-10.752L10.8789-7.88086L8.00781-7.88086C7.50977-7.88086 7.17773-7.53906 7.17773-7.05078Z"/>
  </g>
  <g transform="matrix(1 0 0 1 305.646 1933)">
   <path d="M14.9707 5.66406C21.9336 5.66406 27.6953-0.0976562 27.6953-7.05078C27.6953-14.0137 21.9238-19.7754 14.9609-19.7754C8.00781-19.7754 2.25586-14.0137 2.25586-7.05078C2.25586-0.0976562 8.01758 5.66406 14.9707 5.66406ZM14.9707 3.84766C8.93555 3.84766 4.08203-1.01562 4.08203-7.05078C4.08203-13.0957 8.92578-17.9492 14.9609-17.9492C21.0059-17.9492 25.8691-13.0957 25.8691-7.05078C25.8691-1.01562 21.0156 3.84766 14.9707 3.84766ZM9.19922-7.05078C9.19922-6.5332 9.57031-6.17188 10.1172-6.17188L14.0625-6.17188L14.0625-2.2168C14.0625-1.67969 14.4336-1.29883 14.9512-1.29883C15.4883-1.29883 15.8594-1.66992 15.8594-2.2168L15.8594-6.17188L19.8145-6.17188C20.3516-6.17188 20.7324-6.5332 20.7324-7.05078C20.7324-7.59766 20.3613-7.96875 19.8145-7.96875L15.8594-7.96875L15.8594-11.9141C15.8594-12.4609 15.4883-12.8418 14.9512-12.8418C14.4336-12.8418 14.0625-12.4609 14.0625-11.9141L14.0625-7.96875L10.1172-7.96875C9.57031-7.96875 9.19922-7.59766 9.19922-7.05078Z"/>
  </g>
  <text style="stroke:none;fill:black;font-family:sans-serif;font-size:13;font-weight:bold;" transform="matrix(1 0 0 1 263 1953)">Design Variations</text>
  <text style="stroke:none;fill:black;font-family:sans-serif;font-size:13;" transform="matrix(1 0 0 1 263 1971)">Symbols are supported in up to nine weights and three scales.</text>
  <text style="stroke:none;fill:black;font-family:sans-serif;font-size:13;" transform="matrix(1 0 0 1 263 1989)">For optimal layout with text and other symbols, vertically align</text>
  <text style="stroke:none;fill:black;font-family:sans-serif;font-size:13;" transform="matrix(1 0 0 1 263 2007)">symbols with the adjacent text.</text>
  <line style="fill:none;stroke:#00AEEF;stroke-width:0.5;opacity:1.0;" x1="776" x2="776" y1="1919" y2="1933"/>
  <g transform="matrix(1 0 0 1 776 1933)">
   <path d="M3.31055 0.15625C3.82812 0.15625 4.08203-0.0390625 4.26758-0.585938L5.52734-4.0332L11.2891-4.0332L12.5488-0.585938C12.7344-0.0390625 12.9883 0.15625 13.4961 0.15625C14.0137 0.15625 14.3457-0.15625 14.3457-0.644531C14.3457-0.810547 14.3164-0.966797 14.2383-1.17188L9.6582-13.3691C9.43359-13.9648 9.0332-14.2676 8.4082-14.2676C7.80273-14.2676 7.39258-13.9746 7.17773-13.3789L2.59766-1.16211C2.51953-0.957031 2.49023-0.800781 2.49023-0.634766C2.49023-0.146484 2.80273 0.15625 3.31055 0.15625ZM6.00586-5.51758L8.37891-12.0898L8.42773-12.0898L10.8008-5.51758Z"/>
  </g>
  <line style="fill:none;stroke:#00AEEF;stroke-width:0.5;opacity:1.0;" x1="793.197" x2="793.197" y1="1919" y2="1933"/>
  <text style="stroke:none;fill:black;font-family:sans-serif;font-size:13;font-weight:bold;" transform="matrix(1 0 0 1 776 1953)">Margins</text>
  <text style="stroke:none;fill:black;font-family:sans-serif;font-size:13;" transform="matrix(1 0 0 1 776 1971)">Leading and trailing margins on the left and right side of each symbol</text>
  <text style="stroke:none;fill:black;font-family:sans-serif;font-size:13;" transform="matrix(1 0 0 1 776 1989)">can be adjusted by modifying the x-location of the margin guidelines.</text>
  <text style="stroke:none;fill:black;font-family:sans-serif;font-size:13;" transform="matrix(1 0 0 1 776 2007)">Modifications are automatically applied proportionally to all</text>
  <text style="stroke:none;fill:black;font-family:sans-serif;font-size:13;" transform="matrix(1 0 0 1 776 2025)">scales and weights.</text>
  <g transform="matrix(1 0 0 1 1289 1933)">
   <path d="M2.8418 1.86523L4.54102 3.57422C5.40039 4.44336 6.38672 4.38477 7.31445 3.35938L18.0078-8.42773L17.041-9.4043L6.42578 2.27539C6.07422 2.67578 5.74219 2.77344 5.27344 2.30469L4.10156 1.14258C3.63281 0.683594 3.74023 0.341797 4.14062-0.0195312L15.6152-10.8203L14.6387-11.7871L3.04688-0.898438C2.06055 0.0195312 1.98242 0.996094 2.8418 1.86523ZM9.25781-16.3281C8.83789-15.918 8.80859-15.3418 9.04297-14.9512C9.27734-14.5898 9.73633-14.3555 10.3809-14.5215C11.8457-14.8633 13.3691-14.9219 14.7949-13.9844L14.209-12.5293C13.8672-11.6992 14.043-11.1133 14.5801-10.5664L16.875-8.25195C17.3633-7.76367 17.7734-7.74414 18.3398-7.8418L19.4043-8.03711L20.0684-7.36328L20.0293-6.80664C19.9902-6.30859 20.1172-5.92773 20.6055-5.44922L21.3672-4.70703C21.8457-4.22852 22.4609-4.19922 22.9297-4.66797L25.8398-7.58789C26.3086-8.05664 26.2891-8.65234 25.8105-9.13086L25.0391-9.89258C24.5605-10.3711 24.1895-10.5273 23.7109-10.4883L23.1348-10.4395L22.4902-11.0742L22.7344-12.1973C22.8613-12.7637 22.7051-13.2031 22.1191-13.7891L19.9219-15.9766C16.582-19.2969 12.1484-19.2188 9.25781-16.3281ZM10.752-15.957C13.1836-17.7344 16.4746-17.4316 18.7012-15.2051L21.1328-12.793C21.3672-12.5586 21.4062-12.373 21.3379-12.0312L21.0156-10.5469L22.5195-9.0625L23.5059-9.12109C23.7598-9.13086 23.8379-9.11133 24.0332-8.91602L24.6094-8.33984L22.168-5.89844L21.5918-6.47461C21.3965-6.66992 21.3672-6.74805 21.377-7.01172L21.4453-7.98828L19.9512-9.47266L18.4277-9.21875C18.1055-9.15039 17.959-9.17969 17.7148-9.41406L15.7129-11.416C15.459-11.6504 15.4297-11.8164 15.5859-12.1875L16.4648-14.2773C14.9023-15.7324 12.8711-16.3574 10.8398-15.7617C10.6836-15.7227 10.625-15.8496 10.752-15.957Z"/>
  </g>
  <text style="stroke:none;fill:black;font-family:sans-serif;font-size:13;font-weight:bold;" transform="matrix(1 0 0 1 1289 1953)">Exporting</text>
  <text style="stroke:none;fill:black;font-family:sans-serif;font-size:13;" transform="matrix(1 0 0 1 1289 1971)">Symbols should be outlined when exporting to ensure the</text>
  <text style="stroke:none;fill:black;font-family:sans-serif;font-size:13;" transform="matrix(1 0 0 1 1289 1989)">design is preserved when submitting to Xcode.</text>
  <text id="template-version" style="stroke:none;fill:black;font-family:sans-serif;font-size:13;text-anchor:end;" transform="matrix(1 0 0 1 3036 1933)">Template v.4.0</text>
  <text style="stroke:none;fill:black;font-family:sans-serif;font-size:13;text-anchor:end;" transform="matrix(1 0 0 1 3036 1951)">Requires Xcode 14 or greater</text>
  <text id="descriptive-name" style="stroke:none;fill:black;font-family:sans-serif;font-size:13;text-anchor:end;" transform="matrix(1 0 0 1 3036 1969)">Generated from chevron.compact.down</text>
  <text style="stroke:none;fill:black;font-family:sans-serif;font-size:13;text-anchor:end;" transform="matrix(1 0 0 1 3036 1987)">Typeset at 100 points</text>
  <text style="stroke:none;fill:black;font-family:sans-serif;font-size:13;" transform="matrix(1 0 0 1 263 726)">Small</text>
  <text style="stroke:none;fill:black;font-family:sans-serif;font-size:13;" transform="matrix(1 0 0 1 263 1156)">Medium</text>
  <text style="stroke:none;fill:black;font-family:sans-serif;font-size:13;" transform="matrix(1 0 0 1 263 1586)">Large</text>
 </g>
 <g id="Guides">
  <g id="H-reference" style="fill:#27AAE1;stroke:none;" transform="matrix(1 0 0 1 339 696)">
   <path d="M0.993654 0L3.63775 0L29.3281-67.1323L30.0303-67.1323L30.0303-70.459L28.1226-70.459ZM11.6885-24.4799L46.9815-24.4799L46.2315-26.7285L12.4385-26.7285ZM55.1196 0L57.7637 0L30.6382-70.459L29.4326-70.459L29.4326-67.1323Z"/>
  </g>
  <line id="Baseline-S" style="fill:none;stroke:#27AAE1;opacity:1;stroke-width:0.5;" x1="263" x2="3036" y1="696" y2="696"/>
  <line id="Capline-S" style="fill:none;stroke:#27AAE1;opacity:1;stroke-width:0.5;" x1="263" x2="3036" y1="625.541" y2="625.541"/>
  <g id="H-reference" style="fill:#27AAE1;stroke:none;" transform="matrix(1 0 0 1 339 1126)">
   <path d="M0.993654 0L3.63775 0L29.3281-67.1323L30.0303-67.1323L30.0303-70.459L28.1226-70.459ZM11.6885-24.4799L46.9815-24.4799L46.2315-26.7285L12.4385-26.7285ZM55.1196 0L57.7637 0L30.6382-70.459L29.4326-70.459L29.4326-67.1323Z"/>
  </g>
  <line id="Baseline-M" style="fill:none;stroke:#27AAE1;opacity:1;stroke-width:0.5;" x1="263" x2="3036" y1="1126" y2="1126"/>
  <line id="Capline-M" style="fill:none;stroke:#27AAE1;opacity:1;stroke-width:0.5;" x1="263" x2="3036" y1="1055.54" y2="1055.54"/>
  <g id="H-reference" style="fill:#27AAE1;stroke:none;" transform="matrix(1 0 0 1 339 1556)">
   <path d="M0.993654 0L3.63775 0L29.3281-67.1323L30.0303-67.1323L30.0303-70.459L28.1226-70.459ZM11.6885-24.4799L46.9815-24.4799L46.2315-26.7285L12.4385-26.7285ZM55.1196 0L57.7637 0L30.6382-70.459L29.4326-70.459L29.4326-67.1323Z"/>
  </g>
  <line id="Baseline-L" style="fill:none;stroke:#27AAE1;opacity:1;stroke-width:0.5;" x1="263" x2="3036" y1="1556" y2="1556"/>
  <line id="Capline-L" style="fill:none;stroke:#27AAE1;opacity:1;stroke-width:0.5;" x1="263" x2="3036" y1="1485.54" y2="1485.54"/>
  <line id="left-margin-Regular-M" style="fill:none;stroke:#00AEEF;stroke-width:0.5;opacity:1.0;" x1="1393.86" x2="1393.86" y1="1030.79" y2="1150.12"/>
  <line id="right-margin-Regular-M" style="fill:none;stroke:#00AEEF;stroke-width:0.5;opacity:1.0;" x1="1505.83" x2="1505.83" y1="1030.79" y2="1150.12"/>
 </g>
 <g id="Symbols">
  <g id="Black-L" transform="matrix(1 0 0 1 2857.36 1556)">
   <path d="M23.0076-38.19L63.9119-19.5599C68.7091-17.3542 71.6309-15.9986 76.0359-15.9986C80.4422-15.9986 83.3848-17.3542 88.1611-19.5599L129.066-38.19C133.054-40.0632 135.989-43.5788 135.989-48.2422C135.989-56.0366 130.262-60.9674 124.005-60.9674C120.401-60.9674 115.905-58.8421 111.916-56.9586L73.5051-39.5461L78.5679-39.5461L40.1568-56.9586C36.1676-58.8421 31.6926-60.9674 28.0666-60.9674C21.8104-60.9674 16.084-56.0366 16.084-48.2422C16.084-43.5788 19.0194-40.0632 23.0076-38.19Z"/>
  </g>
  <g id="Heavy-L" transform="matrix(1 0 0 1 2561.65 1556)">
   <path d="M22.2393-38.836L63.7638-20.5761C68.0662-18.6484 71.0594-17.3083 75.0337-17.3083C79.0136-17.3083 82.037-18.6484 86.3092-20.5761L127.834-38.836C131.404-40.4858 133.989-43.6473 133.989-47.7002C133.989-54.4733 129.019-58.8491 123.43-58.8491C120.273-58.8491 116.291-57.0019 112.891-55.4249L72.1344-37.6292L77.9387-37.6292L37.1819-55.4249C33.7823-57.0019 29.8307-58.8491 26.6371-58.8491C21.0488-58.8491 16.084-54.4733 16.084-47.7002C16.084-43.6473 18.6692-40.4858 22.2393-38.836Z"/>
  </g>
  <g id="Bold-L" transform="matrix(1 0 0 1 2266.26 1556)">
   <path d="M21.2567-39.7246L63.6838-21.7692C67.3416-20.1872 70.3078-18.9073 73.7145-18.9073C77.1344-18.9073 80.1385-20.1872 83.7584-21.7692L126.186-39.7246C129.218-41.0978 131.358-43.799 131.358-47.0912C131.358-52.604 127.318-56.2735 122.589-56.2735C119.992-56.2735 116.663-54.772 113.971-53.5567L70.5555-35.2921L76.8867-35.2921L33.4714-53.5567C30.7793-54.772 27.4882-56.2735 24.8398-56.2735C20.1111-56.2735 16.084-52.604 16.084-47.0912C16.084-43.799 18.2239-41.0978 21.2567-39.7246Z"/>
  </g>
  <g id="Semibold-L" transform="matrix(1 0 0 1 1970.45 1556)">
   <path d="M20.5793-40.3372L63.6286-22.5917C66.8422-21.248 69.7896-20.0096 72.805-20.0096C75.8389-20.0096 78.8297-21.248 82-22.5917L125.049-40.3372C127.712-41.5197 129.545-43.9035 129.545-46.6714C129.545-51.3153 126.145-54.4979 122.009-54.4979C119.799-54.4979 116.919-53.2347 114.715-52.2688L69.467-33.6809L76.1616-33.6809L30.9133-52.2688C28.7091-53.2347 25.8733-54.4979 23.6009-54.4979C19.4648-54.4979 16.084-51.3153 16.084-46.6714C16.084-43.9035 17.9169-41.5197 20.5793-40.3372Z"/>
  </g>
  <g id="Medium-L" transform="matrix(1 0 0 1 1674.43 1556)">
   <path d="M20.0657-40.8017L63.5867-23.2153C66.4634-22.0524 69.3967-20.8455 72.1154-20.8455C74.8566-20.8455 77.8373-22.0524 80.6666-23.2153L124.188-40.8017C126.569-41.8396 128.169-43.9827 128.169-46.3531C128.169-50.3382 125.256-53.1516 121.569-53.1516C119.652-53.1516 117.114-52.0691 115.28-51.2923L68.6416-32.4593L75.6117-32.4593L28.9737-51.2923C27.1394-52.0691 24.6488-53.1516 22.6614-53.1516C18.9746-53.1516 16.084-50.3382 16.084-46.3531C16.084-43.9827 17.6841-41.8396 20.0657-40.8017Z"/>
  </g>
  <g id="Regular-L" transform="matrix(1 0 0 1 1378.61 1556)">
   <path d="M19.3957-41.4075L63.5321-24.0288C65.9694-23.1016 68.8842-21.9357 71.216-21.9357C73.5754-21.9357 76.5429-23.1016 78.9274-24.0288L123.064-41.4075C125.079-42.2568 126.376-44.0861 126.376-45.9379C126.376-49.0637 124.097-51.3955 120.996-51.3955C119.461-51.3955 117.368-50.5487 116.016-50.0185L67.5651-30.8658L74.8945-30.8658L26.4438-50.0185C25.092-50.5487 23.0517-51.3955 21.436-51.3955C18.3353-51.3955 16.084-49.0637 16.084-45.9379C16.084-44.0861 17.3805-42.2568 19.3957-41.4075Z"/>
  </g>
  <g id="Light-L" transform="matrix(1 0 0 1 1083.31 1556)">
   <path d="M18.5178-42.5908L64.1429-24.4296C65.9313-23.7505 68.0826-22.89 69.8036-22.89C71.5714-22.89 73.7564-23.7505 75.5112-24.4296L121.136-42.5908C122.655-43.2493 123.57-44.6205 123.57-45.9188C123.57-48.2048 121.883-49.9259 119.584-49.9259C118.487-49.9259 116.948-49.3272 115.939-48.9307L67.2406-29.4917L72.4134-29.4917L23.7146-48.9307C22.7063-49.3272 21.2004-49.9259 20.0237-49.9259C17.7246-49.9259 16.084-48.2048 16.084-45.9188C16.084-44.6205 16.9988-43.2493 18.5178-42.5908Z"/>
  </g>
  <g id="Thin-L" transform="matrix(1 0 0 1 788.45 1556)">
   <path d="M17.3567-44.1558L64.9506-24.9596C65.8808-24.6087 67.0224-24.152 67.9358-24.152C68.9211-24.152 70.0711-24.6087 70.9929-24.9596L118.587-44.1558C119.45-44.5618 119.859-45.3272 119.859-45.8936C119.859-47.069 118.955-47.9823 117.716-47.9823C117.2-47.9823 116.392-47.7118 115.838-47.4919L66.8115-27.6743L69.132-27.6743L20.1051-47.4919C19.5511-47.7118 18.7519-47.9823 18.1558-47.9823C16.9169-47.9823 16.084-47.069 16.084-45.8936C16.084-45.3272 16.494-44.5618 17.3567-44.1558Z"/>
  </g>
  <g id="Ultralight-L" transform="matrix(1 0 0 1 492.69 1556)">
   <path d="M16.7619-44.9574L65.3643-25.2311C65.8549-25.0483 66.4794-24.7985 66.979-24.7985C67.5635-24.7985 68.1835-25.0483 68.6786-25.2311L117.281-44.9574C117.808-45.2341 117.959-45.6892 117.959-45.8806C117.959-46.4872 117.455-46.9868 116.759-46.9868C116.541-46.9868 116.108-46.8843 115.787-46.7549L66.5917-26.7434L67.4512-26.7434L18.2562-46.7549C17.935-46.8843 17.4979-46.9868 17.1991-46.9868C16.5032-46.9868 16.084-46.4872 16.084-45.8806C16.084-45.6892 16.2354-45.2341 16.7619-44.9574Z"/>
  </g>
  <g id="Black-M" transform="matrix(1 0 0 1 2873.82 1126)">
   <path d="M18.3663-37.1283L49.7253-22.2705C53.7791-20.3564 55.878-19.3341 59.5782-19.3341C63.2782-19.3341 65.3825-20.3564 69.4309-22.2705L100.79-37.1283C104.172-38.7456 106.695-41.7116 106.695-45.7742C106.695-52.5769 101.687-56.791 96.3749-56.791C93.2587-56.791 89.4088-54.9392 85.8582-53.2346L58.0816-40.0351L61.0746-40.0351L33.298-53.2346C29.7474-54.9392 25.903-56.791 22.7816-56.791C17.4692-56.791 12.4609-52.5769 12.4609-45.7742C12.4609-41.7116 14.9844-38.7456 18.3663-37.1283Z"/>
  </g>
  <g id="Heavy-M" transform="matrix(1 0 0 1 2577.96 1126)">
   <path d="M17.6962-37.6506L49.5242-23.227C53.1542-21.5617 55.3933-20.5265 58.7288-20.5265C62.0665-20.5265 64.322-21.5617 67.9356-23.227L99.7636-37.6506C102.783-39.0672 104.999-41.7293 104.999-45.2461C104.999-51.1278 100.677-54.8559 95.9431-54.8559C93.2226-54.8559 89.8242-53.253 86.8181-51.8357L56.7715-38.2879L60.6883-38.2879L30.6417-51.8357C27.6356-53.253 24.2536-54.8559 21.5144-54.8559C16.781-54.8559 12.4609-51.1278 12.4609-45.2461C12.4609-41.7293 14.6773-39.0672 17.6962-37.6506Z"/>
  </g>
  <g id="Bold-M" transform="matrix(1 0 0 1 2282.2 1126)">
   <path d="M16.9466-38.2349L49.2992-24.2969C52.4551-22.91 54.8511-21.8603 57.7785-21.8603C60.7111-21.8603 63.1357-22.91 66.263-24.2969L98.6155-38.2349C101.228-39.427 103.101-41.7491 103.101-44.6554C103.101-49.5069 99.5458-52.6912 95.4601-52.6912C93.1823-52.6912 90.2888-51.3666 87.892-50.2708L55.306-36.3334L60.2561-36.3334L27.6702-50.2708C25.2733-51.3666 22.4085-52.6912 20.0969-52.6912C16.0112-52.6912 12.4609-49.5069 12.4609-44.6554C12.4609-41.7491 14.3337-39.427 16.9466-38.2349Z"/>
  </g>
  <g id="Semibold-M" transform="matrix(1 0 0 1 1986.14 1126)">
   <path d="M16.4299-38.6377L49.144-25.0346C51.9731-23.8396 54.4773-22.7798 57.1234-22.7798C59.7766-22.7798 62.3178-23.8396 65.1099-25.0346L97.8241-38.6377C100.157-39.675 101.793-41.7627 101.793-44.2482C101.793-48.3894 98.7664-51.1989 95.1272-51.1989C93.1545-51.1989 90.6092-50.0662 88.6323-49.192L54.2957-34.9861L59.9582-34.9861L25.6217-49.192C23.6448-50.0662 21.1365-51.1989 19.1197-51.1989C15.4805-51.1989 12.4609-48.3894 12.4609-44.2482C12.4609-41.7627 14.0968-39.675 16.4299-38.6377Z"/>
  </g>
  <g id="Medium-M" transform="matrix(1 0 0 1 1689.92 1126)">
   <path d="M16.038-38.9432L49.0264-25.5939C51.6077-24.5444 54.1939-23.477 56.6267-23.477C59.0681-23.477 61.6977-24.5444 64.2356-25.5939L97.224-38.9432C99.3448-39.863 100.801-41.773 100.801-43.9394C100.801-47.542 98.1753-50.0673 94.8747-50.0673C93.1334-50.0673 90.852-49.0801 89.1936-48.374L53.5296-33.9644L59.7324-33.9644L24.0684-48.374C22.4099-49.0801 20.1721-50.0673 18.3787-50.0673C15.0781-50.0673 12.4609-47.542 12.4609-43.9394C12.4609-41.773 13.9172-39.863 16.038-38.9432Z"/>
  </g>
  <g id="Regular-M" transform="matrix(1 0 0 1 1393.86 1126)">
   <path d="M15.527-39.3416L48.873-26.3234C51.131-25.4637 53.8242-24.3864 55.9788-24.3864C58.1439-24.3864 60.8888-25.4637 63.0952-26.3234L96.4412-39.3416C98.2852-40.1083 99.5072-41.7865 99.5072-43.5366C99.5072-46.4368 97.4044-48.5914 94.5454-48.5914C93.1058-48.5914 91.1689-47.794 89.9258-47.3071L52.5304-32.6318L59.4377-32.6318L22.0424-47.3071C20.7993-47.794 18.914-48.5914 17.4122-48.5914C14.5532-48.5914 12.4609-46.4368 12.4609-43.5366C12.4609-41.7865 13.6829-40.1083 15.527-39.3416Z"/>
  </g>
  <g id="Light-M" transform="matrix(1 0 0 1 1098.41 1126)">
   <path d="M14.7399-40.4024L49.4205-26.6828C51.0968-26.0455 53.1056-25.242 54.7126-25.242C56.3473-25.242 58.3906-26.0455 60.0323-26.6828L94.713-40.4024C96.1121-40.9981 96.9919-42.2656 96.9919-43.5195C96.9919-45.6668 95.4195-47.2738 93.2792-47.2738C92.2332-47.2738 90.7924-46.6989 89.8573-46.3318L52.2395-31.3998L57.2133-31.3998L19.5955-46.3318C18.6604-46.6989 17.2543-47.2738 16.146-47.2738C14.0056-47.2738 12.4609-45.6668 12.4609-43.5195C12.4609-42.2656 13.3407-40.9981 14.7399-40.4024Z"/>
  </g>
  <g id="Thin-M" transform="matrix(1 0 0 1 803.359 1126)">
   <path d="M13.6988-41.8055L50.1447-27.158C51.0516-26.8149 52.1551-26.3735 53.0379-26.3735C53.971-26.3735 55.0866-26.8149 55.9814-27.158L92.4273-41.8055C93.238-42.1749 93.6652-42.8993 93.6652-43.4969C93.6652-44.6485 92.7944-45.5313 91.6045-45.5313C91.079-45.5313 90.2945-45.2505 89.7668-45.0418L51.8548-29.7704L54.2713-29.7704L16.3593-45.0418C15.8316-45.2505 15.0591-45.5313 14.4713-45.5313C13.2815-45.5313 12.4609-44.6485 12.4609-43.4969C12.4609-42.8993 12.8881-42.1749 13.6988-41.8055Z"/>
  </g>
  <g id="Ultralight-M" transform="matrix(1 0 0 1 507.5 1126)">
   <path d="M13.1656-42.5242L50.5156-27.4014C51.0284-27.209 51.6683-26.9531 52.1802-26.9531C52.754-26.9531 53.3943-27.209 53.9066-27.4014L91.2566-42.5242C91.7659-42.7776 91.9613-43.2239 91.9613-43.4853C91.9613-44.1268 91.4498-44.6388 90.7468-44.6388C90.4879-44.6388 90.0395-44.5087 89.7204-44.3811L51.6577-28.9359L52.7645-28.9359L14.7018-44.3811C14.3827-44.5087 13.9348-44.6388 13.6136-44.6388C12.9105-44.6388 12.4609-44.1268 12.4609-43.4853C12.4609-43.2239 12.6563-42.7776 13.1656-42.5242Z"/>
  </g>
  <g id="Black-S" transform="matrix(1 0 0 1 2886.53 696)">
   <path d="M14.5508-36.6211L39.0625-24.8047C42.334-23.2422 43.8965-22.4609 46.875-22.4609C49.8535-22.4609 51.416-23.2422 54.6875-24.8047L79.1992-36.6211C81.9336-37.9395 83.9844-40.332 83.9844-43.6523C83.9844-49.2188 79.8828-52.6367 75.5859-52.6367C73.0469-52.6367 69.9219-51.123 66.9922-49.707L45.8984-39.4531L47.8516-39.4531L26.7578-49.707C23.8281-51.123 20.7031-52.6367 18.1641-52.6367C13.8672-52.6367 9.76562-49.2188 9.76562-43.6523C9.76562-40.332 11.8164-37.9395 14.5508-36.6211Z"/>
  </g>
  <g id="Heavy-S" transform="matrix(1 0 0 1 2590.38 696)">
   <path d="M14.0783-36.9323L38.8205-25.5768C41.8039-24.1987 43.5738-23.3714 46.3103-23.3714C49.0468-23.3714 50.8283-24.1987 53.8001-25.5768L78.5423-36.9323C81.0232-38.1008 82.855-40.2859 82.855-43.2029C82.855-48.0778 79.272-51.1501 75.3785-51.1501C73.1275-51.1501 70.3252-49.8208 67.8219-48.6353L44.8151-38.1163L47.8055-38.1163L24.7987-48.6353C22.2954-49.8208 19.5046-51.1501 17.2421-51.1501C13.3486-51.1501 9.76562-48.0778 9.76562-43.2029C9.76562-40.2859 11.5974-38.1008 14.0783-36.9323Z"/>
  </g>
  <g id="Bold-S" transform="matrix(1 0 0 1 2294.3 696)">
   <path d="M13.5498-37.2803L38.5498-26.4404C41.2109-25.2686 43.2129-24.3896 45.6787-24.3896C48.1445-24.3896 50.1709-25.2686 52.8076-26.4404L77.8076-37.2803C80.0049-38.2812 81.5918-40.2344 81.5918-42.7002C81.5918-46.8018 78.5889-49.4873 75.1465-49.4873C73.2178-49.4873 70.7764-48.3643 68.75-47.4365L43.6035-36.6211L47.7539-36.6211L22.6074-47.4365C20.5811-48.3643 18.1641-49.4873 16.2109-49.4873C12.7686-49.4873 9.76562-46.8018 9.76562-42.7002C9.76562-40.2344 11.3525-38.2812 13.5498-37.2803Z"/>
  </g>
  <g id="Semibold-S" transform="matrix(1 0 0 1 1998.02 696)">
   <path d="M13.1854-37.5202L38.3632-27.0358C40.8021-26.0062 42.9641-25.0917 45.2433-25.0917C47.5225-25.0917 49.7177-26.0062 52.1233-27.0358L77.3011-37.5202C79.3028-38.4057 80.7209-40.1988 80.7209-42.3536C80.7209-45.922 78.1179-48.3409 74.9865-48.3409C73.28-48.3409 71.0874-47.3601 69.3898-46.6101L42.7682-35.5902L47.7184-35.5902L21.0967-46.6101C19.3991-47.3601 17.2398-48.3409 15.5-48.3409C12.3687-48.3409 9.76562-45.922 9.76562-42.3536C9.76562-40.1988 11.1837-38.4057 13.1854-37.5202Z"/>
  </g>
  <g id="Medium-S" transform="matrix(1 0 0 1 1701.64 696)">
   <path d="M12.9092-37.7021L38.2217-27.4873C40.4922-26.5654 42.7754-25.624 44.9131-25.624C47.0508-25.624 49.374-26.5654 51.6045-27.4873L76.917-37.7021C78.7705-38.5 80.0605-40.1719 80.0605-42.0908C80.0605-45.2549 77.7607-47.4717 74.8652-47.4717C73.3271-47.4717 71.3232-46.5986 69.875-45.9834L42.1348-34.8086L47.6914-34.8086L19.9512-45.9834C18.5029-46.5986 16.5391-47.4717 14.9609-47.4717C12.0654-47.4717 9.76562-45.2549 9.76562-42.0908C9.76562-40.1719 11.0557-38.5 12.9092-37.7021Z"/>
  </g>
  <g id="Regular-S" transform="matrix(1 0 0 1 1405.36 696)">
   <path d="M12.5488-37.9395L38.0371-28.0762C40.0879-27.2949 42.5293-26.3184 44.4824-26.3184C46.4355-26.3184 48.9258-27.2949 50.9277-28.0762L76.416-37.9395C78.0762-38.623 79.1992-40.1367 79.1992-41.748C79.1992-44.3848 77.2949-46.3379 74.707-46.3379C73.3887-46.3379 71.6309-45.6055 70.5078-45.166L41.3086-33.7891L47.6562-33.7891L18.457-45.166C17.334-45.6055 15.625-46.3379 14.2578-46.3379C11.6699-46.3379 9.76562-44.3848 9.76562-41.748C9.76562-40.1367 10.8887-38.623 12.5488-37.9395Z"/>
  </g>
  <g id="Light-S" transform="matrix(1 0 0 1 1109.76 696)">
   <path d="M11.8525-38.8779L38.5215-28.394C40.0576-27.8096 41.8936-27.0752 43.3623-27.0752C44.8462-27.0752 46.7158-27.8096 48.2183-28.394L74.8872-38.8779C76.1538-39.4102 76.9741-40.5605 76.9741-41.7329C76.9741-43.7036 75.5391-45.1724 73.5869-45.1724C72.6167-45.1724 71.2979-44.6367 70.4473-44.3032L41.0513-32.6992L45.6885-32.6992L16.2925-44.3032C15.4419-44.6367 14.1567-45.1724 13.1377-45.1724C11.1856-45.1724 9.76562-43.7036 9.76562-41.7329C9.76562-40.5605 10.5859-39.4102 11.8525-38.8779Z"/>
  </g>
  <g id="Thin-S" transform="matrix(1 0 0 1 814.524 696)">
   <path d="M10.9317-40.1191L39.1621-28.8144C40.0176-28.4902 41.0527-28.0762 41.8809-28.0762C42.7442-28.0762 43.793-28.4902 44.6348-28.8144L72.8653-40.1191C73.6114-40.4512 74.0313-41.1211 74.0313-41.7129C74.0313-42.8027 73.2168-43.6309 72.1055-43.6309C71.5957-43.6309 70.8574-43.3555 70.3672-43.1621L40.7109-31.2578L43.086-31.2578L13.4297-43.1621C12.9395-43.3555 12.2149-43.6309 11.6563-43.6309C10.5449-43.6309 9.76562-42.8027 9.76562-41.7129C9.76562-41.1211 10.1856-40.4512 10.9317-40.1191Z"/>
  </g>
  <g id="Ultralight-S" transform="matrix(1 0 0 1 518.566 696)">
   <path d="M10.46-40.7549L39.4902-29.0298C39.9971-28.8389 40.6221-28.5888 41.1221-28.5888C41.6675-28.5888 42.296-28.8389 42.7994-29.0298L71.8296-40.7549C72.3091-40.9844 72.524-41.4082 72.524-41.7026C72.524-42.3413 72.0274-42.8413 71.3467-42.8413C71.0728-42.8413 70.6318-42.6992 70.3262-42.5777L40.5366-30.5196L41.753-30.5196L11.9634-42.5777C11.6578-42.6992 11.2202-42.8413 10.8975-42.8413C10.2168-42.8413 9.76562-42.3413 9.76562-41.7026C9.76562-41.4082 9.98048-40.9844 10.46-40.7549Z"/>
  </g>
 </g>
</svg>
