<?xml version="1.0" encoding="UTF-8"?>
<!--Generator: Apple Native CoreSVG 341-->
<!DOCTYPE svg
PUBLIC "-//W3C//DTD SVG 1.1//EN"
       "http://www.w3.org/Graphics/SVG/1.1/DTD/svg11.dtd">
<svg version="1.1" xmlns="http://www.w3.org/2000/svg" xmlns:xlink="http://www.w3.org/1999/xlink" viewBox="0 0 3300 2200">
 <!--glyph: "100C07", point size: 100.0, font version: "20.0d10e1", template writer version: "138.0.0"-->
 <style>.SFSymbolsPreviewWireframe {fill:none;opacity:1.0;stroke:black;stroke-width:0.5}
</style>
 <g id="Notes">
  <rect height="2200" id="artboard" style="fill:white;opacity:1" width="3300" x="0" y="0"/>
  <line style="fill:none;stroke:black;opacity:1;stroke-width:0.5;" x1="263" x2="3036" y1="292" y2="292"/>
  <text style="stroke:none;fill:black;font-family:sans-serif;font-size:13;font-weight:bold;" transform="matrix(1 0 0 1 263 322)">Weight/Scale Variations</text>
  <text style="stroke:none;fill:black;font-family:sans-serif;font-size:13;text-anchor:middle;" transform="matrix(1 0 0 1 559.711 322)">Ultralight</text>
  <text style="stroke:none;fill:black;font-family:sans-serif;font-size:13;text-anchor:middle;" transform="matrix(1 0 0 1 856.422 322)">Thin</text>
  <text style="stroke:none;fill:black;font-family:sans-serif;font-size:13;text-anchor:middle;" transform="matrix(1 0 0 1 1153.13 322)">Light</text>
  <text style="stroke:none;fill:black;font-family:sans-serif;font-size:13;text-anchor:middle;" transform="matrix(1 0 0 1 1449.84 322)">Regular</text>
  <text style="stroke:none;fill:black;font-family:sans-serif;font-size:13;text-anchor:middle;" transform="matrix(1 0 0 1 1746.56 322)">Medium</text>
  <text style="stroke:none;fill:black;font-family:sans-serif;font-size:13;text-anchor:middle;" transform="matrix(1 0 0 1 2043.27 322)">Semibold</text>
  <text style="stroke:none;fill:black;font-family:sans-serif;font-size:13;text-anchor:middle;" transform="matrix(1 0 0 1 2339.98 322)">Bold</text>
  <text style="stroke:none;fill:black;font-family:sans-serif;font-size:13;text-anchor:middle;" transform="matrix(1 0 0 1 2636.69 322)">Heavy</text>
  <text style="stroke:none;fill:black;font-family:sans-serif;font-size:13;text-anchor:middle;" transform="matrix(1 0 0 1 2933.4 322)">Black</text>
  <line style="fill:none;stroke:black;opacity:1;stroke-width:0.5;" x1="263" x2="3036" y1="1903" y2="1903"/>
  <g transform="matrix(0.2 0 0 0.2 263 1933)">
   <path d="m46.2402 4.15039c21.7773 0 39.4531-17.627 39.4531-39.4043s-17.6758-39.4043-39.4531-39.4043c-21.7285 0-39.4043 17.627-39.4043 39.4043s17.6758 39.4043 39.4043 39.4043Zm0-7.42188c-17.6758 0-31.9336-14.3066-31.9336-31.9824s14.2578-31.9824 31.9336-31.9824 31.9824 14.3066 31.9824 31.9824-14.3066 31.9824-31.9824 31.9824Zm-17.9688-31.9824c0 2.14844 1.51367 3.61328 3.75977 3.61328h10.498v10.5957c0 2.19727 1.46484 3.71094 3.61328 3.71094 2.24609 0 3.71094-1.51367 3.71094-3.71094v-10.5957h10.5957c2.19727 0 3.71094-1.46484 3.71094-3.61328 0-2.19727-1.51367-3.71094-3.71094-3.71094h-10.5957v-10.5469c0-2.24609-1.46484-3.75977-3.71094-3.75977-2.14844 0-3.61328 1.51367-3.61328 3.75977v10.5469h-10.498c-2.24609 0-3.75977 1.51367-3.75977 3.71094Z"/>
  </g>
  <g transform="matrix(0.2 0 0 0.2 281.506 1933)">
   <path d="m58.5449 14.5508c27.4902 0 49.8047-22.3145 49.8047-49.8047s-22.3145-49.8047-49.8047-49.8047-49.8047 22.3145-49.8047 49.8047 22.3145 49.8047 49.8047 49.8047Zm0-8.30078c-22.9492 0-41.5039-18.5547-41.5039-41.5039s18.5547-41.5039 41.5039-41.5039 41.5039 18.5547 41.5039 41.5039-18.5547 41.5039-41.5039 41.5039Zm-22.6562-41.5039c0 2.39258 1.66016 4.00391 4.15039 4.00391h14.3555v14.4043c0 2.44141 1.66016 4.15039 4.05273 4.15039 2.44141 0 4.15039-1.66016 4.15039-4.15039v-14.4043h14.4043c2.44141 0 4.15039-1.61133 4.15039-4.00391 0-2.44141-1.70898-4.15039-4.15039-4.15039h-14.4043v-14.3555c0-2.49023-1.70898-4.19922-4.15039-4.19922-2.39258 0-4.05273 1.70898-4.05273 4.19922v14.3555h-14.3555c-2.49023 0-4.15039 1.70898-4.15039 4.15039Z"/>
  </g>
  <g transform="matrix(0.2 0 0 0.2 304.924 1933)">
   <path d="m74.8535 28.3203c35.1074 0 63.623-28.4668 63.623-63.5742s-28.5156-63.623-63.623-63.623-63.5742 28.5156-63.5742 63.623 28.4668 63.5742 63.5742 63.5742Zm0-9.08203c-30.127 0-54.4922-24.3652-54.4922-54.4922s24.3652-54.4922 54.4922-54.4922 54.4922 24.3652 54.4922 54.4922-24.3652 54.4922-54.4922 54.4922Zm-28.8574-54.4922c0 2.58789 1.85547 4.39453 4.58984 4.39453h19.7266v19.7754c0 2.68555 1.85547 4.58984 4.44336 4.58984 2.68555 0 4.54102-1.85547 4.54102-4.58984v-19.7754h19.7754c2.68555 0 4.58984-1.80664 4.58984-4.39453 0-2.73438-1.85547-4.58984-4.58984-4.58984h-19.7754v-19.7266c0-2.73438-1.85547-4.63867-4.54102-4.63867-2.58789 0-4.44336 1.9043-4.44336 4.63867v19.7266h-19.7266c-2.73438 0-4.58984 1.85547-4.58984 4.58984Z"/>
  </g>
  <text style="stroke:none;fill:black;font-family:sans-serif;font-size:13;font-weight:bold;" transform="matrix(1 0 0 1 263 1953)">Design Variations</text>
  <text style="stroke:none;fill:black;font-family:sans-serif;font-size:13;" transform="matrix(1 0 0 1 263 1971)">Symbols are supported in up to nine weights and three scales.</text>
  <text style="stroke:none;fill:black;font-family:sans-serif;font-size:13;" transform="matrix(1 0 0 1 263 1989)">For optimal layout with text and other symbols, vertically align</text>
  <text style="stroke:none;fill:black;font-family:sans-serif;font-size:13;" transform="matrix(1 0 0 1 263 2007)">symbols with the adjacent text.</text>
  <line style="fill:none;stroke:#00AEEF;stroke-width:0.5;opacity:1.0;" x1="776" x2="776" y1="1919" y2="1933"/>
  <g transform="matrix(0.2 0 0 0.2 776 1933)">
   <path d="m16.5527 0.78125c2.58789 0 3.85742-0.976562 4.78516-3.71094l6.29883-17.2363h28.8086l6.29883 17.2363c0.927734 2.73438 2.19727 3.71094 4.73633 3.71094 2.58789 0 4.24805-1.5625 4.24805-4.00391 0-0.830078-0.146484-1.61133-0.537109-2.63672l-22.9004-60.9863c-1.12305-2.97852-3.125-4.49219-6.25-4.49219-3.02734 0-5.07812 1.46484-6.15234 4.44336l-22.9004 61.084c-0.390625 1.02539-0.537109 1.80664-0.537109 2.63672 0 2.44141 1.5625 3.95508 4.10156 3.95508Zm13.4766-28.3691 11.8652-32.8613h0.244141l11.8652 32.8613Z"/>
  </g>
  <line style="fill:none;stroke:#00AEEF;stroke-width:0.5;opacity:1.0;" x1="792.836" x2="792.836" y1="1919" y2="1933"/>
  <text style="stroke:none;fill:black;font-family:sans-serif;font-size:13;font-weight:bold;" transform="matrix(1 0 0 1 776 1953)">Margins</text>
  <text style="stroke:none;fill:black;font-family:sans-serif;font-size:13;" transform="matrix(1 0 0 1 776 1971)">Leading and trailing margins on the left and right side of each symbol</text>
  <text style="stroke:none;fill:black;font-family:sans-serif;font-size:13;" transform="matrix(1 0 0 1 776 1989)">can be adjusted by modifying the x-location of the margin guidelines.</text>
  <text style="stroke:none;fill:black;font-family:sans-serif;font-size:13;" transform="matrix(1 0 0 1 776 2007)">Modifications are automatically applied proportionally to all</text>
  <text style="stroke:none;fill:black;font-family:sans-serif;font-size:13;" transform="matrix(1 0 0 1 776 2025)">scales and weights.</text>
  <g transform="matrix(0.2 0 0 0.2 1289 1933)">
   <path d="m14.209 9.32617 8.49609 8.54492c4.29688 4.3457 9.22852 4.05273 13.8672-1.07422l53.4668-58.9355-4.83398-4.88281-53.0762 58.3984c-1.75781 2.00195-3.41797 2.49023-5.76172 0.146484l-5.85938-5.81055c-2.34375-2.29492-1.80664-4.00391 0.195312-5.81055l57.373-54.0039-4.88281-4.83398-57.959 54.4434c-4.93164 4.58984-5.32227 9.47266-1.02539 13.8184Zm32.0801-90.9668c-2.09961 2.05078-2.24609 4.93164-1.07422 6.88477 1.17188 1.80664 3.4668 2.97852 6.68945 2.14844 7.32422-1.70898 14.9414-2.00195 22.0703 2.68555l-2.92969 7.27539c-1.70898 4.15039-0.830078 7.08008 1.85547 9.81445l11.4746 11.5723c2.44141 2.44141 4.49219 2.53906 7.32422 2.05078l5.32227-0.976562 3.32031 3.36914-0.195312 2.7832c-0.195312 2.49023 0.439453 4.39453 2.88086 6.78711l3.80859 3.71094c2.39258 2.39258 5.46875 2.53906 7.8125 0.195312l14.5508-14.5996c2.34375-2.34375 2.24609-5.32227-0.146484-7.71484l-3.85742-3.80859c-2.39258-2.39258-4.24805-3.17383-6.64062-2.97852l-2.88086 0.244141-3.22266-3.17383 1.2207-5.61523c0.634766-2.83203-0.146484-5.0293-3.07617-7.95898l-10.9863-10.9375c-16.6992-16.6016-38.8672-16.2109-53.3203-1.75781Zm7.4707 1.85547c12.1582-8.88672 28.6133-7.37305 39.7461 3.75977l12.1582 12.0605c1.17188 1.17188 1.36719 2.09961 1.02539 3.80859l-1.61133 7.42188 7.51953 7.42188 4.93164-0.292969c1.26953-0.0488281 1.66016 0.0488281 2.63672 1.02539l2.88086 2.88086-12.207 12.207-2.88086-2.88086c-0.976562-0.976562-1.12305-1.36719-1.07422-2.68555l0.341797-4.88281-7.4707-7.42188-7.61719 1.26953c-1.61133 0.341797-2.34375 0.195312-3.56445-0.976562l-10.0098-10.0098c-1.26953-1.17188-1.41602-2.00195-0.634766-3.85742l4.39453-10.4492c-7.8125-7.27539-17.9688-10.4004-28.125-7.42188-0.78125 0.195312-1.07422-0.439453-0.439453-0.976562Z"/>
  </g>
  <text style="stroke:none;fill:black;font-family:sans-serif;font-size:13;font-weight:bold;" transform="matrix(1 0 0 1 1289 1953)">Exporting</text>
  <text style="stroke:none;fill:black;font-family:sans-serif;font-size:13;" transform="matrix(1 0 0 1 1289 1971)">Symbols should be outlined when exporting to ensure the</text>
  <text style="stroke:none;fill:black;font-family:sans-serif;font-size:13;" transform="matrix(1 0 0 1 1289 1989)">design is preserved when submitting to Xcode.</text>
  <text id="template-version" style="stroke:none;fill:black;font-family:sans-serif;font-size:13;text-anchor:end;" transform="matrix(1 0 0 1 3036 1933)">Template v.6.0</text>
  <text style="stroke:none;fill:black;font-family:sans-serif;font-size:13;text-anchor:end;" transform="matrix(1 0 0 1 3036 1951)">Requires Xcode 16 or greater</text>
  <text id="descriptive-name" style="stroke:none;fill:black;font-family:sans-serif;font-size:13;text-anchor:end;" transform="matrix(1 0 0 1 3036 1969)">Generated from arrowtriangle.forward.fill</text>
  <text style="stroke:none;fill:black;font-family:sans-serif;font-size:13;text-anchor:end;" transform="matrix(1 0 0 1 3036 1987)">Typeset at 100.0 points</text>
  <text style="stroke:none;fill:black;font-family:sans-serif;font-size:13;" transform="matrix(1 0 0 1 263 726)">Small</text>
  <text style="stroke:none;fill:black;font-family:sans-serif;font-size:13;" transform="matrix(1 0 0 1 263 1156)">Medium</text>
  <text style="stroke:none;fill:black;font-family:sans-serif;font-size:13;" transform="matrix(1 0 0 1 263 1586)">Large</text>
 </g>
 <g id="Guides">
  <g id="H-reference" style="fill:#27AAE1;stroke:none;" transform="matrix(1 0 0 1 339 696)">
   <path d="M0.993654 0L3.63775 0L29.3281-67.1323L30.0303-67.1323L30.0303-70.459L28.1226-70.459ZM11.6885-24.4799L46.9815-24.4799L46.2315-26.7285L12.4385-26.7285ZM55.1196 0L57.7637 0L30.6382-70.459L29.4326-70.459L29.4326-67.1323Z"/>
  </g>
  <line id="Baseline-S" style="fill:none;stroke:#27AAE1;opacity:1;stroke-width:0.5;" x1="263" x2="3036" y1="696" y2="696"/>
  <line id="Capline-S" style="fill:none;stroke:#27AAE1;opacity:1;stroke-width:0.5;" x1="263" x2="3036" y1="625.541" y2="625.541"/>
  <g id="H-reference" style="fill:#27AAE1;stroke:none;" transform="matrix(1 0 0 1 339 1126)">
   <path d="M0.993654 0L3.63775 0L29.3281-67.1323L30.0303-67.1323L30.0303-70.459L28.1226-70.459ZM11.6885-24.4799L46.9815-24.4799L46.2315-26.7285L12.4385-26.7285ZM55.1196 0L57.7637 0L30.6382-70.459L29.4326-70.459L29.4326-67.1323Z"/>
  </g>
  <line id="Baseline-M" style="fill:none;stroke:#27AAE1;opacity:1;stroke-width:0.5;" x1="263" x2="3036" y1="1126" y2="1126"/>
  <line id="Capline-M" style="fill:none;stroke:#27AAE1;opacity:1;stroke-width:0.5;" x1="263" x2="3036" y1="1055.54" y2="1055.54"/>
  <g id="H-reference" style="fill:#27AAE1;stroke:none;" transform="matrix(1 0 0 1 339 1556)">
   <path d="M0.993654 0L3.63775 0L29.3281-67.1323L30.0303-67.1323L30.0303-70.459L28.1226-70.459ZM11.6885-24.4799L46.9815-24.4799L46.2315-26.7285L12.4385-26.7285ZM55.1196 0L57.7637 0L30.6382-70.459L29.4326-70.459L29.4326-67.1323Z"/>
  </g>
  <line id="Baseline-L" style="fill:none;stroke:#27AAE1;opacity:1;stroke-width:0.5;" x1="263" x2="3036" y1="1556" y2="1556"/>
  <line id="Capline-L" style="fill:none;stroke:#27AAE1;opacity:1;stroke-width:0.5;" x1="263" x2="3036" y1="1485.54" y2="1485.54"/>
  <line id="right-margin-Regular-M" style="fill:none;stroke:#00AEEF;stroke-width:0.5;opacity:1.0;" x1="1500.88" x2="1500.88" y1="1030.79" y2="1150.12"/>
  <line id="left-margin-Regular-M" style="fill:none;stroke:#00AEEF;stroke-width:0.5;opacity:1.0;" x1="1398.81" x2="1398.81" y1="1030.79" y2="1150.12"/>
 </g>
 <g id="Symbols">
  <g id="Black-L" transform="matrix(1 0 0 1 2865.73 1556)">
   <path class="SFSymbolsPreviewWireframe" d="M28.2779 16.4766C31.4191 16.4766 34.1178 15.2811 38.2006 13.3174L112.63-22.2163C119.013-25.2812 122.469-29.5501 122.469-35.1893C122.469-40.8285 119.013-45.0974 112.63-48.1622L38.2006-83.696C34.0969-85.6596 31.3983-86.8552 28.2571-86.8552C21.8271-86.8552 16.084-81.8944 16.084-73.4153L16.1048 3.03672C16.1048 11.5158 21.8479 16.4766 28.2779 16.4766Z"/>
  </g>
  <g id="Heavy-L" transform="matrix(1 0 0 1 2569.46 1556)">
   <path class="SFSymbolsPreviewWireframe" d="M27.1153 16.0845C30.0855 16.0845 32.5988 14.9287 36.3166 13.1244L112.491-23.3773C118.565-26.313 121.595-30.1209 121.595-35.1893C121.595-40.2577 118.565-44.0656 112.491-47.0013L36.3166-83.503C32.5686-85.3073 30.0553-86.4631 27.0851-86.4631C21.1273-86.4631 16.084-81.8652 16.084-74.1472L16.1142 3.76863C16.1142 11.4866 21.1575 16.0845 27.1153 16.0845Z"/>
  </g>
  <g id="Bold-L" transform="matrix(1 0 0 1 2273.26 1556)">
   <path class="SFSymbolsPreviewWireframe" d="M25.6783 15.6004C28.4036 15.6004 30.6641 14.5131 33.9361 12.9086L112.433-24.8366C118.034-27.5662 120.571-30.8129 120.571-35.1893C120.571-39.5657 118.034-42.8123 112.433-45.542L33.9361-83.2871C30.6261-84.8917 28.3656-85.9789 25.6403-85.9789C20.2964-85.9789 16.084-81.8567 16.084-75.0837L16.122 4.70514C16.122 11.4781 20.3344 15.6004 25.6783 15.6004Z"/>
  </g>
  <g id="Semibold-L" transform="matrix(1 0 0 1 1976.9 1556)">
   <path class="SFSymbolsPreviewWireframe" d="M24.6877 15.2666C27.2442 15.2666 29.3303 14.2266 32.2949 12.7598L112.394-25.8426C117.668-28.4302 119.865-31.2899 119.865-35.1893C119.865-39.0886 117.668-41.9483 112.394-44.536L32.2949-83.1383C29.287-84.6052 27.2008-85.6452 24.6443-85.6452C19.7235-85.6452 16.084-81.8508 16.084-75.7293L16.1273 5.35076C16.1273 11.4722 19.7669 15.2666 24.6877 15.2666Z"/>
  </g>
  <g id="Medium-L" transform="matrix(1 0 0 1 1680.46 1556)">
   <path class="SFSymbolsPreviewWireframe" d="M23.9365 15.0135C26.365 15.0135 28.319 14.0094 31.0505 12.6469L112.364-26.6054C117.39-29.0853 119.33-31.6517 119.33-35.1893C119.33-38.7269 117.39-41.2932 112.364-43.7731L31.0505-83.0255C28.2716-84.388 26.3176-85.3921 23.8891-85.3921C19.2891-85.3921 16.084-81.8463 16.084-76.2189L16.1314 5.8403C16.1314 11.4677 19.3366 15.0135 23.9365 15.0135Z"/>
  </g>
  <g id="Regular-L" transform="matrix(1 0 0 1 1384.09 1556)">
   <path class="SFSymbolsPreviewWireframe" d="M22.9567 14.6834C25.2183 14.6834 26.9999 13.726 29.4274 12.4997L112.324-27.6004C117.028-29.9398 118.632-32.1235 118.632-35.1893C118.632-38.255 117.028-40.4387 112.324-42.7782L29.4274-82.8783C26.9471-84.1046 25.1655-85.062 22.904-85.062C18.7225-85.062 16.084-81.8405 16.084-76.8574L16.1367 6.47883C16.1367 11.4619 18.7753 14.6834 22.9567 14.6834Z"/>
  </g>
  <g id="Light-L" transform="matrix(1 0 0 1 1087.55 1556)">
   <path class="SFSymbolsPreviewWireframe" d="M21.9834 14.359C23.8633 14.359 25.3204 13.5734 27.4807 12.4997L113.031-28.7455C116.819-30.646 118.307-32.5052 118.307-35.1893C118.307-37.8733 116.819-39.7326 113.031-41.6331L27.4807-82.8783C25.2867-83.9519 23.8296-84.7375 21.9497-84.7375C18.379-84.7375 16.084-82.0123 16.084-77.6971L16.1177 7.31858C16.1177 11.6337 18.4127 14.359 21.9834 14.359Z"/>
  </g>
  <g id="Thin-L" transform="matrix(1 0 0 1 791.05 1556)">
   <path class="SFSymbolsPreviewWireframe" d="M20.6961 13.9299C22.0711 13.9299 23.0991 13.3714 24.906 12.4997L113.965-30.26C116.541-31.5799 117.878-33.0101 117.878-35.1893C117.878-37.3685 116.541-38.7986 113.965-40.1185L24.906-82.8783C23.0907-83.75 22.0627-84.3084 20.6876-84.3084C17.9247-84.3084 16.084-82.2394 16.084-78.8078L16.0924 8.42922C16.0924 11.8609 17.9331 13.9299 20.6961 13.9299Z"/>
  </g>
  <g id="Ultralight-L" transform="matrix(1 0 0 1 494.448 1556)">
   <path class="SFSymbolsPreviewWireframe" d="M20.0367 13.7101C21.1531 13.7101 21.9614 13.268 23.5873 12.4997L114.443-31.0357C116.399-32.0583 117.658-33.2686 117.658-35.1893C117.658-37.1099 116.399-38.3203 114.443-39.3428L23.5873-82.8783C21.9659-83.6466 21.1576-84.0886 20.0412-84.0886C17.6919-84.0886 16.084-82.3558 16.084-79.3767L16.0795 8.99809C16.0795 11.9772 17.6874 13.7101 20.0367 13.7101Z"/>
  </g>
  <g id="Black-M" transform="matrix(1 0 0 1 2880.62 1126)">
   <path class="SFSymbolsPreviewWireframe" d="M22.7753 5.12242C25.3042 5.12242 27.5103 4.1853 30.9511 2.54769L87.4753-24.3051C92.5614-26.731 95.5896-30.3906 95.5896-35.1983C95.5896-40.0061 92.5614-43.6656 87.4753-46.0916L30.9511-72.9444C27.5048-74.582 25.2987-75.5191 22.7698-75.5191C17.4653-75.5191 12.4609-71.4311 12.4609-64.2984L12.4664-6.09829C12.4664 1.0344 17.4707 5.12242 22.7753 5.12242Z"/>
  </g>
  <g id="Heavy-M" transform="matrix(1 0 0 1 2584.32 1126)">
   <path class="SFSymbolsPreviewWireframe" d="M21.7286 4.76904C24.1255 4.76904 26.1804 3.85493 29.2889 2.35904L87.2735-25.3343C92.1426-27.6745 94.7646-30.9133 94.7646-35.1983C94.7646-39.4833 92.1426-42.7221 87.2735-45.0624L29.2889-72.7557C26.164-74.2516 24.1091-75.1657 21.7122-75.1657C16.8129-75.1657 12.4609-71.3867 12.4609-64.9364L12.4773-5.46028C12.4773 0.990037 16.8293 4.76904 21.7286 4.76904Z"/>
  </g>
  <g id="Bold-M" transform="matrix(1 0 0 1 2288.07 1126)">
   <path class="SFSymbolsPreviewWireframe" d="M20.5578 4.37372C22.807 4.37372 24.6927 3.48536 27.4295 2.14801L87.0477-26.4857C91.674-28.73 93.8418-31.4981 93.8418-35.1983C93.8418-38.8986 91.674-41.6667 87.0477-43.911L27.4295-72.5447C24.6641-73.882 22.7784-74.7704 20.5291-74.7704C16.0831-74.7704 12.4609-71.3371 12.4609-65.6501L12.4896-4.74657C12.4896 0.940412 16.1117 4.37372 20.5578 4.37372Z"/>
  </g>
  <g id="Semibold-M" transform="matrix(1 0 0 1 1991.68 1126)">
   <path class="SFSymbolsPreviewWireframe" d="M19.7506 4.1012C21.8981 4.1012 23.6671 3.23058 26.1477 2.00253L86.892-27.2795C91.3509-29.4576 93.2055-31.9013 93.2055-35.1983C93.2055-38.4954 91.3509-40.9391 86.892-43.1172L26.1477-72.3992C23.63-73.6273 21.861-74.4979 19.7135-74.4979C15.58-74.4979 12.4609-71.3029 12.4609-66.1421L12.498-4.25454C12.498 0.9062 15.617 4.1012 19.7506 4.1012Z"/>
  </g>
  <g id="Medium-M" transform="matrix(1 0 0 1 1695.21 1126)">
   <path class="SFSymbolsPreviewWireframe" d="M19.1385 3.89456C21.2088 3.89456 22.8894 3.0374 25.1757 1.89222L86.774-27.8813C91.106-30.0093 92.7231-32.2069 92.7231-35.1983C92.7231-38.1897 91.106-40.3873 86.774-42.5154L25.1757-72.2889C22.846-73.4341 21.1654-74.2912 19.0951-74.2912C15.1985-74.2912 12.4609-71.2769 12.4609-66.5152L12.5044-3.88146C12.5044 0.88026 15.2419 3.89456 19.1385 3.89456Z"/>
  </g>
  <g id="Regular-M" transform="matrix(1 0 0 1 1398.81 1126)">
   <path class="SFSymbolsPreviewWireframe" d="M18.3402 3.62503C20.3099 3.62503 21.875 2.78542 23.908 1.74834L86.6201-28.6664C90.7865-30.729 92.0939-32.6056 92.0939-35.1983C92.0939-37.791 90.7865-39.6677 86.6201-41.7303L23.908-72.145C21.8233-73.1821 20.2581-74.0217 18.2885-74.0217C14.7009-74.0217 12.4609-71.2431 12.4609-67.0018L12.5127-3.39484C12.5127 0.846424 14.7527 3.62503 18.3402 3.62503Z"/>
  </g>
  <g id="Light-M" transform="matrix(1 0 0 1 1102.25 1126)">
   <path class="SFSymbolsPreviewWireframe" d="M17.4676 3.33414C19.095 3.33414 20.3693 2.64853 22.1627 1.74834L87.2532-29.693C90.5983-31.3621 91.803-32.9479 91.803-35.1983C91.803-37.4488 90.5983-39.0346 87.2532-40.7037L22.1627-72.145C20.3346-73.0452 19.0603-73.7308 17.4329-73.7308C14.3929-73.7308 12.4609-71.3971 12.4609-67.7547L12.4956-2.64196C12.4956 1.00042 14.4275 3.33414 17.4676 3.33414Z"/>
  </g>
  <g id="Thin-M" transform="matrix(1 0 0 1 805.729 1126)">
   <path class="SFSymbolsPreviewWireframe" d="M16.3134 2.94942C17.4882 2.94942 18.3778 2.46748 19.8543 1.74834L88.0905-31.0509C90.3493-32.1994 91.4183-33.4005 91.4183-35.1983C91.4183-36.9962 90.3493-38.1973 88.0905-39.3458L19.8543-72.145C18.3658-72.8642 17.4762-73.3461 16.3014-73.3461C13.9856-73.3461 12.4609-71.6008 12.4609-68.7505L12.4729-1.64621C12.4729 1.2041 13.9976 2.94942 16.3134 2.94942Z"/>
  </g>
  <g id="Ultralight-M" transform="matrix(1 0 0 1 509.116 1126)">
   <path class="SFSymbolsPreviewWireframe" d="M15.7222 2.75237C16.6652 2.75237 17.3577 2.37475 18.672 1.74834L88.5194-31.7463C90.2218-32.6283 91.2212-33.6323 91.2212-35.1983C91.2212-36.7644 90.2218-37.7684 88.5194-38.6503L18.672-72.145C17.3573-72.7714 16.6648-73.149 15.7218-73.149C13.7769-73.149 12.4609-71.7051 12.4609-69.2605L12.4614-1.13619C12.4614 1.30842 13.7773 2.75237 15.7222 2.75237Z"/>
  </g>
  <g id="Black-S" transform="matrix(1 0 0 1 2891.92 696)">
   <path class="SFSymbolsPreviewWireframe" d="M18.1152-3.51562C20.1172-3.51562 21.875-4.24805 24.6582-5.56641L68.6523-26.416C72.6562-28.3203 75.1465-31.2988 75.1465-35.2051C75.1465-39.1113 72.6562-42.0898 68.6523-43.9941L24.6582-64.8438C21.875-66.1621 20.1172-66.8945 18.1152-66.8945C13.8672-66.8945 9.76562-63.623 9.76562-57.8613L9.76562-12.5488C9.76562-6.78711 13.8672-3.51562 18.1152-3.51562Z"/>
  </g>
  <g id="Heavy-S" transform="matrix(1 0 0 1 2595.54 696)">
   <path class="SFSymbolsPreviewWireframe" d="M17.3316-3.78069C19.2644-3.78069 20.93-4.51311 23.4597-5.72775L68.3988-27.1651C72.322-29.0464 74.4781-31.7022 74.4781-35.2051C74.4781-38.708 72.322-41.3638 68.3988-43.2451L23.4597-64.6824C20.9185-65.897 19.2529-66.6295 17.32-66.6295C13.3486-66.6295 9.76562-63.5654 9.76562-58.3108L9.77715-12.0994C9.77715-6.84473 13.3601-3.78069 17.3316-3.78069Z"/>
  </g>
  <g id="Bold-S" transform="matrix(1 0 0 1 2299.21 696)">
   <path class="SFSymbolsPreviewWireframe" d="M16.4551-4.07715C18.3105-4.07715 19.873-4.80957 22.1191-5.9082L68.1152-28.0029C71.9482-29.8584 73.7305-32.1533 73.7305-35.2051C73.7305-38.2568 71.9482-40.5518 68.1152-42.4072L22.1191-64.502C19.8486-65.6006 18.2861-66.333 16.4307-66.333C12.7686-66.333 9.76562-63.501 9.76562-58.8135L9.79004-11.5967C9.79004-6.90918 12.793-4.07715 16.4551-4.07715Z"/>
  </g>
  <g id="Semibold-S" transform="matrix(1 0 0 1 2002.75 696)">
   <path class="SFSymbolsPreviewWireframe" d="M15.8508-4.28154C17.6529-4.28154 19.1443-5.01396 21.1949-6.03262L67.9197-28.5806C71.6905-30.4183 73.215-32.4644 73.215-35.2051C73.215-37.9458 71.6905-39.9919 67.9197-41.8296L21.1949-64.3775C19.111-65.3962 17.6196-66.1286 15.8175-66.1286C12.3687-66.1286 9.76562-63.4565 9.76562-59.1601L9.79893-11.2501C9.79893-6.95361 12.402-4.28154 15.8508-4.28154Z"/>
  </g>
  <g id="Medium-S" transform="matrix(1 0 0 1 1706.24 696)">
   <path class="SFSymbolsPreviewWireframe" d="M15.3926-4.43652C17.1543-4.43652 18.5918-5.16895 20.4941-6.12695L67.7715-29.0186C71.4951-30.8428 72.8242-32.7002 72.8242-35.2051C72.8242-37.71 71.4951-39.5674 67.7715-41.3916L20.4941-64.2832C18.5518-65.2412 17.1143-65.9736 15.3525-65.9736C12.0654-65.9736 9.76562-63.4229 9.76562-59.4229L9.80566-10.9873C9.80566-6.9873 12.1055-4.43652 15.3926-4.43652Z"/>
  </g>
  <g id="Regular-S" transform="matrix(1 0 0 1 1409.78 696)">
   <path class="SFSymbolsPreviewWireframe" d="M14.7949-4.63867C16.5039-4.63867 17.8711-5.37109 19.5801-6.25L67.5781-29.5898C71.2402-31.3965 72.3145-33.0078 72.3145-35.2051C72.3145-37.4023 71.2402-39.0137 67.5781-40.8203L19.5801-64.1602C17.8223-65.0391 16.4551-65.7715 14.7461-65.7715C11.6699-65.7715 9.76562-63.3789 9.76562-59.7656L9.81445-10.6445C9.81445-7.03125 11.7188-4.63867 14.7949-4.63867Z"/>
  </g>
  <g id="Light-S" transform="matrix(1 0 0 1 1113.2 696)">
   <path class="SFSymbolsPreviewWireframe" d="M14.023-4.89599C15.4292-4.89599 16.5391-5.49219 18.0361-6.25L68.1382-30.498C71.0737-31.9565 72.0571-33.3105 72.0571-35.2051C72.0571-37.0996 71.0737-38.4536 68.1382-39.9121L18.0361-64.1602C16.5054-64.918 15.3955-65.5142 13.9893-65.5142C11.3975-65.5142 9.76562-63.5151 9.76562-60.4316L9.79932-9.97852C9.79932-6.89502 11.4312-4.89599 14.023-4.89599Z"/>
  </g>
  <g id="Thin-S" transform="matrix(1 0 0 1 816.658 696)">
   <path class="SFSymbolsPreviewWireframe" d="M13.002-5.23632C14.0078-5.23632 14.7774-5.65234 15.9942-6.25L68.8789-31.6992C70.8535-32.6973 71.7168-33.7109 71.7168-35.2051C71.7168-36.6992 70.8535-37.7129 68.8789-38.711L15.9942-64.1602C14.7637-64.7578 13.9942-65.1738 12.9883-65.1738C11.0371-65.1738 9.76562-63.6953 9.76562-61.3125L9.7793-9.09767C9.7793-6.71485 11.0508-5.23632 13.002-5.23632Z"/>
  </g>
  <g id="Ultralight-S" transform="matrix(1 0 0 1 520.034 696)">
   <path class="SFSymbolsPreviewWireframe" d="M12.479-5.41064C13.2798-5.41064 13.875-5.73437 14.9483-6.25L69.2583-32.3144C70.7407-33.0766 71.5425-33.916 71.5425-35.2051C71.5425-36.4941 70.7407-37.3335 69.2583-38.0957L14.9483-64.1602C13.8716-64.6758 13.2764-64.9995 12.4756-64.9995C10.8525-64.9995 9.76562-63.7876 9.76562-61.7637L9.76904-8.6465C9.76904-6.62256 10.856-5.41064 12.479-5.41064Z"/>
  </g>
 </g>
</svg>
