<?xml version="1.0" encoding="UTF-8"?>
<!--Generator: Apple Native CoreSVG 341-->
<!DOCTYPE svg
PUBLIC "-//W3C//DTD SVG 1.1//EN"
       "http://www.w3.org/Graphics/SVG/1.1/DTD/svg11.dtd">
<svg version="1.1" xmlns="http://www.w3.org/2000/svg" xmlns:xlink="http://www.w3.org/1999/xlink" viewBox="0 0 3300 2200">
 <!--glyph: "100C01", point size: 100.0, font version: "20.0d10e1", template writer version: "138.0.0"-->
 <style>.SFSymbolsPreviewWireframe {fill:none;opacity:1.0;stroke:black;stroke-width:0.5}
</style>
 <g id="Notes">
  <rect height="2200" id="artboard" style="fill:white;opacity:1" width="3300" x="0" y="0"/>
  <line style="fill:none;stroke:black;opacity:1;stroke-width:0.5;" x1="263" x2="3036" y1="292" y2="292"/>
  <text style="stroke:none;fill:black;font-family:sans-serif;font-size:13;font-weight:bold;" transform="matrix(1 0 0 1 263 322)">Weight/Scale Variations</text>
  <text style="stroke:none;fill:black;font-family:sans-serif;font-size:13;text-anchor:middle;" transform="matrix(1 0 0 1 559.711 322)">Ultralight</text>
  <text style="stroke:none;fill:black;font-family:sans-serif;font-size:13;text-anchor:middle;" transform="matrix(1 0 0 1 856.422 322)">Thin</text>
  <text style="stroke:none;fill:black;font-family:sans-serif;font-size:13;text-anchor:middle;" transform="matrix(1 0 0 1 1153.13 322)">Light</text>
  <text style="stroke:none;fill:black;font-family:sans-serif;font-size:13;text-anchor:middle;" transform="matrix(1 0 0 1 1449.84 322)">Regular</text>
  <text style="stroke:none;fill:black;font-family:sans-serif;font-size:13;text-anchor:middle;" transform="matrix(1 0 0 1 1746.56 322)">Medium</text>
  <text style="stroke:none;fill:black;font-family:sans-serif;font-size:13;text-anchor:middle;" transform="matrix(1 0 0 1 2043.27 322)">Semibold</text>
  <text style="stroke:none;fill:black;font-family:sans-serif;font-size:13;text-anchor:middle;" transform="matrix(1 0 0 1 2339.98 322)">Bold</text>
  <text style="stroke:none;fill:black;font-family:sans-serif;font-size:13;text-anchor:middle;" transform="matrix(1 0 0 1 2636.69 322)">Heavy</text>
  <text style="stroke:none;fill:black;font-family:sans-serif;font-size:13;text-anchor:middle;" transform="matrix(1 0 0 1 2933.4 322)">Black</text>
  <line style="fill:none;stroke:black;opacity:1;stroke-width:0.5;" x1="263" x2="3036" y1="1903" y2="1903"/>
  <g transform="matrix(0.2 0 0 0.2 263 1933)">
   <path d="m46.2402 4.15039c21.7773 0 39.4531-17.627 39.4531-39.4043s-17.6758-39.4043-39.4531-39.4043c-21.7285 0-39.4043 17.627-39.4043 39.4043s17.6758 39.4043 39.4043 39.4043Zm0-7.42188c-17.6758 0-31.9336-14.3066-31.9336-31.9824s14.2578-31.9824 31.9336-31.9824 31.9824 14.3066 31.9824 31.9824-14.3066 31.9824-31.9824 31.9824Zm-17.9688-31.9824c0 2.14844 1.51367 3.61328 3.75977 3.61328h10.498v10.5957c0 2.19727 1.46484 3.71094 3.61328 3.71094 2.24609 0 3.71094-1.51367 3.71094-3.71094v-10.5957h10.5957c2.19727 0 3.71094-1.46484 3.71094-3.61328 0-2.19727-1.51367-3.71094-3.71094-3.71094h-10.5957v-10.5469c0-2.24609-1.46484-3.75977-3.71094-3.75977-2.14844 0-3.61328 1.51367-3.61328 3.75977v10.5469h-10.498c-2.24609 0-3.75977 1.51367-3.75977 3.71094Z"/>
  </g>
  <g transform="matrix(0.2 0 0 0.2 281.506 1933)">
   <path d="m58.5449 14.5508c27.4902 0 49.8047-22.3145 49.8047-49.8047s-22.3145-49.8047-49.8047-49.8047-49.8047 22.3145-49.8047 49.8047 22.3145 49.8047 49.8047 49.8047Zm0-8.30078c-22.9492 0-41.5039-18.5547-41.5039-41.5039s18.5547-41.5039 41.5039-41.5039 41.5039 18.5547 41.5039 41.5039-18.5547 41.5039-41.5039 41.5039Zm-22.6562-41.5039c0 2.39258 1.66016 4.00391 4.15039 4.00391h14.3555v14.4043c0 2.44141 1.66016 4.15039 4.05273 4.15039 2.44141 0 4.15039-1.66016 4.15039-4.15039v-14.4043h14.4043c2.44141 0 4.15039-1.61133 4.15039-4.00391 0-2.44141-1.70898-4.15039-4.15039-4.15039h-14.4043v-14.3555c0-2.49023-1.70898-4.19922-4.15039-4.19922-2.39258 0-4.05273 1.70898-4.05273 4.19922v14.3555h-14.3555c-2.49023 0-4.15039 1.70898-4.15039 4.15039Z"/>
  </g>
  <g transform="matrix(0.2 0 0 0.2 304.924 1933)">
   <path d="m74.8535 28.3203c35.1074 0 63.623-28.4668 63.623-63.5742s-28.5156-63.623-63.623-63.623-63.5742 28.5156-63.5742 63.623 28.4668 63.5742 63.5742 63.5742Zm0-9.08203c-30.127 0-54.4922-24.3652-54.4922-54.4922s24.3652-54.4922 54.4922-54.4922 54.4922 24.3652 54.4922 54.4922-24.3652 54.4922-54.4922 54.4922Zm-28.8574-54.4922c0 2.58789 1.85547 4.39453 4.58984 4.39453h19.7266v19.7754c0 2.68555 1.85547 4.58984 4.44336 4.58984 2.68555 0 4.54102-1.85547 4.54102-4.58984v-19.7754h19.7754c2.68555 0 4.58984-1.80664 4.58984-4.39453 0-2.73438-1.85547-4.58984-4.58984-4.58984h-19.7754v-19.7266c0-2.73438-1.85547-4.63867-4.54102-4.63867-2.58789 0-4.44336 1.9043-4.44336 4.63867v19.7266h-19.7266c-2.73438 0-4.58984 1.85547-4.58984 4.58984Z"/>
  </g>
  <text style="stroke:none;fill:black;font-family:sans-serif;font-size:13;font-weight:bold;" transform="matrix(1 0 0 1 263 1953)">Design Variations</text>
  <text style="stroke:none;fill:black;font-family:sans-serif;font-size:13;" transform="matrix(1 0 0 1 263 1971)">Symbols are supported in up to nine weights and three scales.</text>
  <text style="stroke:none;fill:black;font-family:sans-serif;font-size:13;" transform="matrix(1 0 0 1 263 1989)">For optimal layout with text and other symbols, vertically align</text>
  <text style="stroke:none;fill:black;font-family:sans-serif;font-size:13;" transform="matrix(1 0 0 1 263 2007)">symbols with the adjacent text.</text>
  <line style="fill:none;stroke:#00AEEF;stroke-width:0.5;opacity:1.0;" x1="776" x2="776" y1="1919" y2="1933"/>
  <g transform="matrix(0.2 0 0 0.2 776 1933)">
   <path d="m16.5527 0.78125c2.58789 0 3.85742-0.976562 4.78516-3.71094l6.29883-17.2363h28.8086l6.29883 17.2363c0.927734 2.73438 2.19727 3.71094 4.73633 3.71094 2.58789 0 4.24805-1.5625 4.24805-4.00391 0-0.830078-0.146484-1.61133-0.537109-2.63672l-22.9004-60.9863c-1.12305-2.97852-3.125-4.49219-6.25-4.49219-3.02734 0-5.07812 1.46484-6.15234 4.44336l-22.9004 61.084c-0.390625 1.02539-0.537109 1.80664-0.537109 2.63672 0 2.44141 1.5625 3.95508 4.10156 3.95508Zm13.4766-28.3691 11.8652-32.8613h0.244141l11.8652 32.8613Z"/>
  </g>
  <line style="fill:none;stroke:#00AEEF;stroke-width:0.5;opacity:1.0;" x1="792.836" x2="792.836" y1="1919" y2="1933"/>
  <text style="stroke:none;fill:black;font-family:sans-serif;font-size:13;font-weight:bold;" transform="matrix(1 0 0 1 776 1953)">Margins</text>
  <text style="stroke:none;fill:black;font-family:sans-serif;font-size:13;" transform="matrix(1 0 0 1 776 1971)">Leading and trailing margins on the left and right side of each symbol</text>
  <text style="stroke:none;fill:black;font-family:sans-serif;font-size:13;" transform="matrix(1 0 0 1 776 1989)">can be adjusted by modifying the x-location of the margin guidelines.</text>
  <text style="stroke:none;fill:black;font-family:sans-serif;font-size:13;" transform="matrix(1 0 0 1 776 2007)">Modifications are automatically applied proportionally to all</text>
  <text style="stroke:none;fill:black;font-family:sans-serif;font-size:13;" transform="matrix(1 0 0 1 776 2025)">scales and weights.</text>
  <g transform="matrix(0.2 0 0 0.2 1289 1933)">
   <path d="m14.209 9.32617 8.49609 8.54492c4.29688 4.3457 9.22852 4.05273 13.8672-1.07422l53.4668-58.9355-4.83398-4.88281-53.0762 58.3984c-1.75781 2.00195-3.41797 2.49023-5.76172 0.146484l-5.85938-5.81055c-2.34375-2.29492-1.80664-4.00391 0.195312-5.81055l57.373-54.0039-4.88281-4.83398-57.959 54.4434c-4.93164 4.58984-5.32227 9.47266-1.02539 13.8184Zm32.0801-90.9668c-2.09961 2.05078-2.24609 4.93164-1.07422 6.88477 1.17188 1.80664 3.4668 2.97852 6.68945 2.14844 7.32422-1.70898 14.9414-2.00195 22.0703 2.68555l-2.92969 7.27539c-1.70898 4.15039-0.830078 7.08008 1.85547 9.81445l11.4746 11.5723c2.44141 2.44141 4.49219 2.53906 7.32422 2.05078l5.32227-0.976562 3.32031 3.36914-0.195312 2.7832c-0.195312 2.49023 0.439453 4.39453 2.88086 6.78711l3.80859 3.71094c2.39258 2.39258 5.46875 2.53906 7.8125 0.195312l14.5508-14.5996c2.34375-2.34375 2.24609-5.32227-0.146484-7.71484l-3.85742-3.80859c-2.39258-2.39258-4.24805-3.17383-6.64062-2.97852l-2.88086 0.244141-3.22266-3.17383 1.2207-5.61523c0.634766-2.83203-0.146484-5.0293-3.07617-7.95898l-10.9863-10.9375c-16.6992-16.6016-38.8672-16.2109-53.3203-1.75781Zm7.4707 1.85547c12.1582-8.88672 28.6133-7.37305 39.7461 3.75977l12.1582 12.0605c1.17188 1.17188 1.36719 2.09961 1.02539 3.80859l-1.61133 7.42188 7.51953 7.42188 4.93164-0.292969c1.26953-0.0488281 1.66016 0.0488281 2.63672 1.02539l2.88086 2.88086-12.207 12.207-2.88086-2.88086c-0.976562-0.976562-1.12305-1.36719-1.07422-2.68555l0.341797-4.88281-7.4707-7.42188-7.61719 1.26953c-1.61133 0.341797-2.34375 0.195312-3.56445-0.976562l-10.0098-10.0098c-1.26953-1.17188-1.41602-2.00195-0.634766-3.85742l4.39453-10.4492c-7.8125-7.27539-17.9688-10.4004-28.125-7.42188-0.78125 0.195312-1.07422-0.439453-0.439453-0.976562Z"/>
  </g>
  <text style="stroke:none;fill:black;font-family:sans-serif;font-size:13;font-weight:bold;" transform="matrix(1 0 0 1 1289 1953)">Exporting</text>
  <text style="stroke:none;fill:black;font-family:sans-serif;font-size:13;" transform="matrix(1 0 0 1 1289 1971)">Symbols should be outlined when exporting to ensure the</text>
  <text style="stroke:none;fill:black;font-family:sans-serif;font-size:13;" transform="matrix(1 0 0 1 1289 1989)">design is preserved when submitting to Xcode.</text>
  <text id="template-version" style="stroke:none;fill:black;font-family:sans-serif;font-size:13;text-anchor:end;" transform="matrix(1 0 0 1 3036 1933)">Template v.6.0</text>
  <text style="stroke:none;fill:black;font-family:sans-serif;font-size:13;text-anchor:end;" transform="matrix(1 0 0 1 3036 1951)">Requires Xcode 16 or greater</text>
  <text id="descriptive-name" style="stroke:none;fill:black;font-family:sans-serif;font-size:13;text-anchor:end;" transform="matrix(1 0 0 1 3036 1969)">Generated from arrowtriangle.backward.fill</text>
  <text style="stroke:none;fill:black;font-family:sans-serif;font-size:13;text-anchor:end;" transform="matrix(1 0 0 1 3036 1987)">Typeset at 100.0 points</text>
  <text style="stroke:none;fill:black;font-family:sans-serif;font-size:13;" transform="matrix(1 0 0 1 263 726)">Small</text>
  <text style="stroke:none;fill:black;font-family:sans-serif;font-size:13;" transform="matrix(1 0 0 1 263 1156)">Medium</text>
  <text style="stroke:none;fill:black;font-family:sans-serif;font-size:13;" transform="matrix(1 0 0 1 263 1586)">Large</text>
 </g>
 <g id="Guides">
  <g id="H-reference" style="fill:#27AAE1;stroke:none;" transform="matrix(1 0 0 1 339 696)">
   <path d="M0.993654 0L3.63775 0L29.3281-67.1323L30.0303-67.1323L30.0303-70.459L28.1226-70.459ZM11.6885-24.4799L46.9815-24.4799L46.2315-26.7285L12.4385-26.7285ZM55.1196 0L57.7637 0L30.6382-70.459L29.4326-70.459L29.4326-67.1323Z"/>
  </g>
  <line id="Baseline-S" style="fill:none;stroke:#27AAE1;opacity:1;stroke-width:0.5;" x1="263" x2="3036" y1="696" y2="696"/>
  <line id="Capline-S" style="fill:none;stroke:#27AAE1;opacity:1;stroke-width:0.5;" x1="263" x2="3036" y1="625.541" y2="625.541"/>
  <g id="H-reference" style="fill:#27AAE1;stroke:none;" transform="matrix(1 0 0 1 339 1126)">
   <path d="M0.993654 0L3.63775 0L29.3281-67.1323L30.0303-67.1323L30.0303-70.459L28.1226-70.459ZM11.6885-24.4799L46.9815-24.4799L46.2315-26.7285L12.4385-26.7285ZM55.1196 0L57.7637 0L30.6382-70.459L29.4326-70.459L29.4326-67.1323Z"/>
  </g>
  <line id="Baseline-M" style="fill:none;stroke:#27AAE1;opacity:1;stroke-width:0.5;" x1="263" x2="3036" y1="1126" y2="1126"/>
  <line id="Capline-M" style="fill:none;stroke:#27AAE1;opacity:1;stroke-width:0.5;" x1="263" x2="3036" y1="1055.54" y2="1055.54"/>
  <g id="H-reference" style="fill:#27AAE1;stroke:none;" transform="matrix(1 0 0 1 339 1556)">
   <path d="M0.993654 0L3.63775 0L29.3281-67.1323L30.0303-67.1323L30.0303-70.459L28.1226-70.459ZM11.6885-24.4799L46.9815-24.4799L46.2315-26.7285L12.4385-26.7285ZM55.1196 0L57.7637 0L30.6382-70.459L29.4326-70.459L29.4326-67.1323Z"/>
  </g>
  <line id="Baseline-L" style="fill:none;stroke:#27AAE1;opacity:1;stroke-width:0.5;" x1="263" x2="3036" y1="1556" y2="1556"/>
  <line id="Capline-L" style="fill:none;stroke:#27AAE1;opacity:1;stroke-width:0.5;" x1="263" x2="3036" y1="1485.54" y2="1485.54"/>
  <line id="right-margin-Regular-M" style="fill:none;stroke:#00AEEF;stroke-width:0.5;opacity:1.0;" x1="1500.85" x2="1500.85" y1="1030.79" y2="1150.12"/>
  <line id="left-margin-Regular-M" style="fill:none;stroke:#00AEEF;stroke-width:0.5;opacity:1.0;" x1="1398.84" x2="1398.84" y1="1030.79" y2="1150.12"/>
 </g>
 <g id="Symbols">
  <g id="Black-L" transform="matrix(1 0 0 1 2865.74 1556)">
   <path class="SFSymbolsPreviewWireframe" d="M107.058-86.8552C103.916-86.8552 101.219-85.6596 97.1357-83.696L22.706-48.1622C16.323-45.0974 12.8672-40.8285 12.8672-35.1893C12.8672-29.5501 16.323-25.2812 22.706-22.2163L97.1357 13.3174C101.239 15.2811 103.937 16.4766 107.079 16.4766C113.509 16.4766 119.232 11.5158 119.232 3.03672L119.232-73.4153C119.232-81.8944 113.488-86.8552 107.058-86.8552Z"/>
  </g>
  <g id="Heavy-L" transform="matrix(1 0 0 1 2569.47 1556)">
   <path class="SFSymbolsPreviewWireframe" d="M107.346-86.4631C104.371-86.4631 101.863-85.3073 98.1452-83.503L21.9712-47.0013C15.8968-44.0656 12.8672-40.2577 12.8672-35.1893C12.8672-30.1209 15.8968-26.313 21.9712-23.3773L98.1452 13.1244C101.893 14.9287 104.401 16.0845 107.377 16.0845C113.334 16.0845 118.348 11.4866 118.348 3.76863L118.348-74.1472C118.348-81.8652 113.304-86.4631 107.346-86.4631Z"/>
  </g>
  <g id="Bold-L" transform="matrix(1 0 0 1 2273.28 1556)">
   <path class="SFSymbolsPreviewWireframe" d="M107.76-85.9789C105.021-85.9789 102.774-84.8917 99.5019-83.2871L21.0048-45.542C15.4039-42.8123 12.8672-39.5657 12.8672-35.1893C12.8672-30.8129 15.4039-27.5662 21.0048-24.8366L99.5019 12.9086C102.812 14.5131 105.059 15.6004 107.798 15.6004C113.142 15.6004 117.316 11.4781 117.316 4.70514L117.316-75.0837C117.316-81.8567 113.104-85.9789 107.76-85.9789Z"/>
  </g>
  <g id="Semibold-L" transform="matrix(1 0 0 1 1976.92 1556)">
   <path class="SFSymbolsPreviewWireframe" d="M108.044-85.6452C105.469-85.6452 103.402-84.6052 100.437-83.1383L20.3386-44.536C15.0642-41.9483 12.8672-39.0886 12.8672-35.1893C12.8672-31.2899 15.0642-28.4302 20.3386-25.8426L100.437 12.7598C103.445 14.2266 105.513 15.2666 108.088 15.2666C113.009 15.2666 116.605 11.4722 116.605 5.35076L116.605-75.7293C116.605-81.8508 112.965-85.6452 108.044-85.6452Z"/>
  </g>
  <g id="Medium-L" transform="matrix(1 0 0 1 1680.48 1556)">
   <path class="SFSymbolsPreviewWireframe" d="M108.26-85.3921C105.809-85.3921 103.878-84.388 101.146-83.0255L19.8334-43.7731C14.8065-41.2932 12.8672-38.7269 12.8672-35.1893C12.8672-31.6517 14.8065-29.0853 19.8334-26.6054L101.146 12.6469C103.925 14.0094 105.857 15.0135 108.308 15.0135C112.908 15.0135 116.066 11.4677 116.066 5.8403L116.066-76.2189C116.066-81.8463 112.86-85.3921 108.26-85.3921Z"/>
  </g>
  <g id="Regular-L" transform="matrix(1 0 0 1 1384.12 1556)">
   <path class="SFSymbolsPreviewWireframe" d="M108.542-85.062C106.253-85.062 104.499-84.1046 102.072-82.8783L19.1745-42.7782C14.4705-40.4387 12.8672-38.255 12.8672-35.1893C12.8672-32.1235 14.4705-29.9398 19.1745-27.6004L102.072 12.4997C104.552 13.726 106.306 14.6834 108.595 14.6834C112.776 14.6834 115.362 11.4619 115.362 6.47883L115.362-76.8574C115.362-81.8405 112.724-85.062 108.542-85.062Z"/>
  </g>
  <g id="Light-L" transform="matrix(1 0 0 1 1087.56 1556)">
   <path class="SFSymbolsPreviewWireframe" d="M109.191-84.7375C107.264-84.7375 105.854-83.9519 103.694-82.8783L18.1439-41.6331C14.356-39.7326 12.8672-37.8733 12.8672-35.1893C12.8672-32.5052 14.356-30.646 18.1439-28.7455L103.694 12.4997C105.888 13.5734 107.298 14.359 109.225 14.359C112.795 14.359 115.057 11.6337 115.057 7.31858L115.057-77.6971C115.057-82.0123 112.762-84.7375 109.191-84.7375Z"/>
  </g>
  <g id="Thin-L" transform="matrix(1 0 0 1 791.054 1556)">
   <path class="SFSymbolsPreviewWireframe" d="M110.049-84.3084C108.602-84.3084 107.646-83.75 105.839-82.8783L16.7808-40.1185C14.2045-38.7986 12.8672-37.3685 12.8672-35.1893C12.8672-33.0101 14.2045-31.5799 16.7808-30.26L105.839 12.4997C107.655 13.3714 108.611 13.9299 110.058 13.9299C112.821 13.9299 114.653 11.8609 114.653 8.42922L114.653-78.8078C114.653-82.2394 112.812-84.3084 110.049-84.3084Z"/>
  </g>
  <g id="Ultralight-L" transform="matrix(1 0 0 1 494.446 1556)">
   <path class="SFSymbolsPreviewWireframe" d="M110.489-84.0886C109.288-84.0886 108.564-83.6466 106.938-82.8783L16.0826-39.3428C14.127-38.3203 12.8672-37.1099 12.8672-35.1893C12.8672-33.2686 14.127-32.0583 16.0826-31.0357L106.938 12.4997C108.56 13.268 109.283 13.7101 110.484 13.7101C112.834 13.7101 114.446 11.9772 114.446 8.99809L114.446-79.3767C114.446-82.3558 112.838-84.0886 110.489-84.0886Z"/>
  </g>
  <g id="Black-M" transform="matrix(1 0 0 1 2880.62 1126)">
   <path class="SFSymbolsPreviewWireframe" d="M82.7831-75.5191C80.2545-75.5191 78.0481-74.582 74.6073-72.9444L18.0831-46.0916C12.9969-43.6656 9.96875-40.0061 9.96875-35.1983C9.96875-30.3906 12.9969-26.731 18.0831-24.3051L74.6073 2.54769C78.0536 4.1853 80.26 5.12242 82.7886 5.12242C88.0931 5.12242 93.092 1.0344 93.092-6.09829L93.092-64.2984C93.092-71.4311 88.0877-75.5191 82.7831-75.5191Z"/>
  </g>
  <g id="Heavy-M" transform="matrix(1 0 0 1 2584.33 1126)">
   <path class="SFSymbolsPreviewWireframe" d="M83.0048-75.1657C80.6056-75.1657 78.553-74.2516 75.4445-72.7557L17.4599-45.0624C12.5908-42.7221 9.96875-39.4833 9.96875-35.1983C9.96875-30.9133 12.5908-27.6745 17.4599-25.3343L75.4445 2.35904C78.5694 3.85493 80.622 4.76904 83.0212 4.76904C87.9205 4.76904 92.256 0.990037 92.256-5.46028L92.256-64.9364C92.256-71.3867 87.9041-75.1657 83.0048-75.1657Z"/>
  </g>
  <g id="Bold-M" transform="matrix(1 0 0 1 2288.09 1126)">
   <path class="SFSymbolsPreviewWireframe" d="M83.2527-74.7704C80.9983-74.7704 79.1178-73.882 76.381-72.5447L16.7628-43.911C12.1365-41.6667 9.96875-38.8986 9.96875-35.1983C9.96875-31.4981 12.1365-28.73 16.7628-26.4857L76.381 2.14801C79.1465 3.48536 81.027 4.37372 83.2814 4.37372C87.7274 4.37372 91.3209 0.940412 91.3209-4.74657L91.3209-65.6501C91.3209-71.3371 87.6988-74.7704 83.2527-74.7704Z"/>
  </g>
  <g id="Semibold-M" transform="matrix(1 0 0 1 1991.7 1126)">
   <path class="SFSymbolsPreviewWireframe" d="M83.4237-74.4979C81.2691-74.4979 79.5072-73.6273 77.0266-72.3992L16.2822-43.1172C11.8234-40.9391 9.96875-38.4954 9.96875-35.1983C9.96875-31.9013 11.8234-29.4576 16.2822-27.2795L77.0266 2.00253C79.5443 3.23058 81.3062 4.1012 83.4607 4.1012C87.5943 4.1012 90.6763 0.9062 90.6763-4.25454L90.6763-66.1421C90.6763-71.3029 87.5573-74.4979 83.4237-74.4979Z"/>
  </g>
  <g id="Medium-M" transform="matrix(1 0 0 1 1695.23 1126)">
   <path class="SFSymbolsPreviewWireframe" d="M83.5533-74.2912C81.4744-74.2912 79.8025-73.4341 77.5161-72.2889L15.9178-42.5154C11.5859-40.3873 9.96875-38.1897 9.96875-35.1983C9.96875-32.2069 11.5859-30.0093 15.9178-27.8813L77.5161 1.89222C79.8459 3.0374 81.5178 3.89456 83.5968 3.89456C87.4934 3.89456 90.1875 0.88026 90.1875-3.88146L90.1875-66.5152C90.1875-71.2769 87.45-74.2912 83.5533-74.2912Z"/>
  </g>
  <g id="Regular-M" transform="matrix(1 0 0 1 1398.84 1126)">
   <path class="SFSymbolsPreviewWireframe" d="M83.7224-74.0217C81.7422-74.0217 80.1876-73.1821 78.1547-72.145L15.4425-41.7303C11.2761-39.6677 9.96875-37.791 9.96875-35.1983C9.96875-32.6056 11.2761-30.729 15.4425-28.6664L78.1547 1.74834C80.2394 2.78542 81.794 3.62503 83.7742 3.62503C87.3617 3.62503 89.5499 0.846424 89.5499-3.39484L89.5499-67.0018C89.5499-71.2431 87.31-74.0217 83.7224-74.0217Z"/>
  </g>
  <g id="Light-M" transform="matrix(1 0 0 1 1102.26 1126)">
   <path class="SFSymbolsPreviewWireframe" d="M84.3042-73.7308C82.6491-73.7308 81.4025-73.0452 79.6091-72.145L14.5186-40.7037C11.1735-39.0346 9.96875-37.4488 9.96875-35.1983C9.96875-32.9479 11.1735-31.3621 14.5186-29.693L79.6091 1.74834C81.4371 2.64853 82.6837 3.33414 84.3388 3.33414C87.3788 3.33414 89.2762 1.00042 89.2762-2.64196L89.2762-67.7547C89.2762-71.3971 87.3442-73.7308 84.3042-73.7308Z"/>
  </g>
  <g id="Thin-M" transform="matrix(1 0 0 1 805.735 1126)">
   <path class="SFSymbolsPreviewWireframe" d="M85.0736-73.3461C83.8485-73.3461 83.0092-72.8642 81.5327-72.145L13.2965-39.3458C11.0377-38.1973 9.96875-36.9962 9.96875-35.1983C9.96875-33.4005 11.0377-32.1994 13.2965-31.0509L81.5327 1.74834C83.0213 2.46748 83.8605 2.94942 85.0856 2.94942C87.4015 2.94942 88.9141 1.2041 88.9141-1.64621L88.9141-68.7505C88.9141-71.6008 87.3895-73.3461 85.0736-73.3461Z"/>
  </g>
  <g id="Ultralight-M" transform="matrix(1 0 0 1 509.116 1126)">
   <path class="SFSymbolsPreviewWireframe" d="M85.4677-73.149C84.4629-73.149 83.8322-72.7714 82.5179-72.145L12.6706-38.6503C10.9682-37.7684 9.96875-36.7644 9.96875-35.1983C9.96875-33.6323 10.9682-32.6283 12.6706-31.7463L82.5179 1.74834C83.8327 2.37475 84.4633 2.75237 85.4681 2.75237C87.4131 2.75237 88.7286 1.30842 88.7286-1.13619L88.7286-69.2605C88.7286-71.7051 87.4126-73.149 85.4677-73.149Z"/>
  </g>
  <g id="Black-S" transform="matrix(1 0 0 1 2891.92 696)">
   <path class="SFSymbolsPreviewWireframe" d="M64.8438-66.8945C62.8418-66.8945 61.084-66.1621 58.3008-64.8438L14.3066-43.9941C10.3027-42.0898 7.8125-39.1113 7.8125-35.2051C7.8125-31.2988 10.3027-28.3203 14.3066-26.416L58.3008-5.56641C61.084-4.24805 62.8418-3.51562 64.8438-3.51562C69.0918-3.51562 73.1934-6.78711 73.1934-12.5488L73.1934-57.8613C73.1934-63.623 69.0918-66.8945 64.8438-66.8945Z"/>
  </g>
  <g id="Heavy-S" transform="matrix(1 0 0 1 2595.55 696)">
   <path class="SFSymbolsPreviewWireframe" d="M64.959-66.6295C63.0262-66.6295 61.3606-65.897 58.8309-64.6824L13.8918-43.2451C9.96852-41.3638 7.8125-38.708 7.8125-35.2051C7.8125-31.7022 9.96852-29.0464 13.8918-27.1651L58.8309-5.72775C61.3721-4.51311 63.0377-3.78069 64.9705-3.78069C68.942-3.78069 72.5134-6.84473 72.5134-12.0994L72.5134-58.3108C72.5134-63.5654 68.9305-66.6295 64.959-66.6295Z"/>
  </g>
  <g id="Bold-S" transform="matrix(1 0 0 1 2299.22 696)">
   <path class="SFSymbolsPreviewWireframe" d="M65.0879-66.333C63.2324-66.333 61.6699-65.6006 59.4238-64.502L13.4277-42.4072C9.59473-40.5518 7.8125-38.2568 7.8125-35.2051C7.8125-32.1533 9.59473-29.8584 13.4277-28.0029L59.4238-5.9082C61.6943-4.80957 63.2568-4.07715 65.1123-4.07715C68.7744-4.07715 71.7529-6.90918 71.7529-11.5967L71.7529-58.8135C71.7529-63.501 68.75-66.333 65.0879-66.333Z"/>
  </g>
  <g id="Semibold-S" transform="matrix(1 0 0 1 2002.77 696)">
   <path class="SFSymbolsPreviewWireframe" d="M65.1768-66.1286C63.3746-66.1286 61.8832-65.3962 59.8326-64.3775L13.1078-41.8296C9.33701-39.9919 7.8125-37.9458 7.8125-35.2051C7.8125-32.4644 9.33701-30.4183 13.1078-28.5806L59.8326-6.03262C61.9165-5.01396 63.4079-4.28154 65.2101-4.28154C68.6589-4.28154 71.2286-6.95361 71.2286-11.2501L71.2286-59.1601C71.2286-63.4565 68.6256-66.1286 65.1768-66.1286Z"/>
  </g>
  <g id="Medium-S" transform="matrix(1 0 0 1 1706.26 696)">
   <path class="SFSymbolsPreviewWireframe" d="M65.2441-65.9736C63.4824-65.9736 62.0449-65.2412 60.1426-64.2832L12.8652-41.3916C9.1416-39.5674 7.8125-37.71 7.8125-35.2051C7.8125-32.7002 9.1416-30.8428 12.8652-29.0186L60.1426-6.12695C62.085-5.16895 63.5225-4.43652 65.2842-4.43652C68.5713-4.43652 70.8311-6.9873 70.8311-10.9873L70.8311-59.4229C70.8311-63.4229 68.5312-65.9736 65.2441-65.9736Z"/>
  </g>
  <g id="Regular-S" transform="matrix(1 0 0 1 1409.81 696)">
   <path class="SFSymbolsPreviewWireframe" d="M65.332-65.7715C63.623-65.7715 62.2559-65.0391 60.5469-64.1602L12.5488-40.8203C8.88672-39.0137 7.8125-37.4023 7.8125-35.2051C7.8125-33.0078 8.88672-31.3965 12.5488-29.5898L60.5469-6.25C62.3047-5.37109 63.6719-4.63867 65.3809-4.63867C68.457-4.63867 70.3125-7.03125 70.3125-10.6445L70.3125-59.7656C70.3125-63.3789 68.4082-65.7715 65.332-65.7715Z"/>
  </g>
  <g id="Light-S" transform="matrix(1 0 0 1 1113.22 696)">
   <path class="SFSymbolsPreviewWireframe" d="M65.8467-65.5142C64.4253-65.5142 63.3306-64.918 61.8335-64.1602L11.7315-39.9121C8.7959-38.4536 7.8125-37.0996 7.8125-35.2051C7.8125-33.3105 8.7959-31.9565 11.7315-30.498L61.8335-6.25C63.3642-5.49219 64.459-4.89599 65.8804-4.89599C68.4722-4.89599 70.0703-6.89502 70.0703-9.97852L70.0703-60.4316C70.0703-63.5151 68.4385-65.5142 65.8467-65.5142Z"/>
  </g>
  <g id="Thin-S" transform="matrix(1 0 0 1 816.664 696)">
   <path class="SFSymbolsPreviewWireframe" d="M66.5273-65.1738C65.4863-65.1738 64.7519-64.7578 63.5351-64.1602L10.6504-38.711C8.67578-37.7129 7.8125-36.6992 7.8125-35.2051C7.8125-33.7109 8.67578-32.6973 10.6504-31.6992L63.5351-6.25C64.7656-5.65234 65.5-5.23632 66.541-5.23632C68.4922-5.23632 69.75-6.71485 69.75-9.09767L69.75-61.3125C69.75-63.6953 68.4785-65.1738 66.5273-65.1738Z"/>
  </g>
  <g id="Ultralight-S" transform="matrix(1 0 0 1 520.035 696)">
   <path class="SFSymbolsPreviewWireframe" d="M66.876-64.9995C66.0298-64.9995 65.48-64.6758 64.4067-64.1602L10.0967-38.0957C8.61426-37.3335 7.8125-36.4941 7.8125-35.2051C7.8125-33.916 8.61426-33.0766 10.0967-32.3144L64.4067-6.25C65.4834-5.73437 66.0332-5.41064 66.8794-5.41064C68.5024-5.41064 69.5859-6.62256 69.5859-8.6465L69.5859-61.7637C69.5859-63.7876 68.499-64.9995 66.876-64.9995Z"/>
  </g>
 </g>
</svg>
